<svg width="84" height="83" viewBox="0 0 84 83" fill="none" xmlns="http://www.w3.org/2000/svg">
<rect x="0.620178" y="0.104401" width="82.6707" height="82.6707" rx="41.3354" fill="#F3F3F3"/>
<g clip-path="url(#clip0_3_21)">
<path d="M51.3505 17.8431C51.2501 17.7309 47.6332 17.8874 44.4858 21.3035C41.3385 24.7166 41.8227 28.6317 41.8935 28.732C41.9644 28.8324 46.3814 28.9889 49.201 25.0178C52.0207 21.0466 51.4509 17.9583 51.3505 17.8431ZM61.1351 52.4851C60.9934 52.2017 54.2705 48.8417 54.8965 42.3816C55.5224 35.9214 59.8419 34.147 59.9098 33.9551C59.9777 33.7631 58.1472 31.6226 56.2074 30.539C54.7828 29.7758 53.2067 29.3381 51.5926 29.2576C51.2737 29.2487 50.1665 28.9771 47.8901 29.6001C46.3902 30.0105 43.0096 31.3391 42.0795 31.3923C41.1465 31.4454 38.3712 29.851 35.3862 29.4288C33.4759 29.0598 31.4505 29.8156 30.0008 30.3973C28.554 30.976 25.8023 32.6235 23.8772 37.0021C21.9522 41.3777 22.959 48.3102 23.6794 50.4656C24.3998 52.6209 25.5247 56.1462 27.438 58.7208C29.1386 61.6261 31.3944 63.6427 32.3362 64.3277C33.2781 65.0127 35.9353 65.4674 37.7777 64.5255C39.2599 63.6161 41.9349 63.0935 42.9919 63.1319C44.0459 63.1703 46.1245 63.5866 48.2533 64.7233C49.9392 65.305 51.5335 65.0629 53.1308 64.4133C54.7282 63.7608 57.04 61.2866 59.7386 56.2702C60.7621 53.9377 61.2276 52.676 61.1351 52.4851Z" fill="black"/>
<path d="M51.3505 17.8431C51.2501 17.7309 47.6332 17.8874 44.4858 21.3035C41.3385 24.7166 41.8227 28.6317 41.8935 28.732C41.9644 28.8324 46.3814 28.9889 49.201 25.0178C52.0207 21.0466 51.4509 17.9583 51.3505 17.8431ZM61.1351 52.4851C60.9934 52.2017 54.2705 48.8417 54.8965 42.3816C55.5224 35.9214 59.8419 34.147 59.9098 33.9551C59.9777 33.7631 58.1472 31.6226 56.2074 30.539C54.7828 29.7758 53.2067 29.3381 51.5926 29.2576C51.2737 29.2487 50.1665 28.9771 47.8901 29.6001C46.3902 30.0105 43.0096 31.3391 42.0795 31.3923C41.1465 31.4454 38.3712 29.851 35.3862 29.4288C33.4759 29.0598 31.4505 29.8156 30.0008 30.3973C28.554 30.976 25.8023 32.6235 23.8772 37.0021C21.9522 41.3777 22.959 48.3102 23.6794 50.4656C24.3998 52.6209 25.5247 56.1462 27.438 58.7208C29.1386 61.6261 31.3944 63.6427 32.3362 64.3277C33.2781 65.0127 35.9353 65.4674 37.7777 64.5255C39.2599 63.6161 41.9349 63.0935 42.9919 63.1319C44.0459 63.1703 46.1245 63.5866 48.2533 64.7233C49.9392 65.305 51.5335 65.0629 53.1308 64.4133C54.7282 63.7608 57.04 61.2866 59.7386 56.2702C60.7621 53.9377 61.2276 52.676 61.1351 52.4851Z" fill="black"/>
</g>
<defs>
<clipPath id="clip0_3_21">
<rect width="47.2404" height="47.2404" fill="white" transform="translate(18.3354 17.8195)"/>
</clipPath>
</defs>
</svg>
