<svg width="159" height="61" viewBox="0 0 159 61" fill="none" xmlns="http://www.w3.org/2000/svg">
<path id="Arrow 7" d="M1.2484 0.906831C1.21906 0.571975 0.923815 0.324308 0.58896 0.353651C0.254104 0.382994 0.00643671 0.678235 0.0357798 1.01309L1.2484 0.906831ZM60.7358 49.3169L60.4999 49.8779L60.7358 49.3169ZM158.404 49.4542C158.48 49.1267 158.276 48.7998 157.948 48.7239L152.612 47.4879C152.284 47.412 151.957 47.616 151.881 47.9435C151.806 48.2709 152.01 48.5979 152.337 48.6737L157.081 49.7724L155.982 54.5159C155.906 54.8434 156.11 55.1704 156.437 55.2462C156.765 55.3221 157.092 55.1181 157.168 54.7906L158.404 49.4542ZM0.64209 0.959961C0.0357798 1.01309 0.0357946 1.01326 0.0358099 1.01343C0.0358157 1.0135 0.0358315 1.01368 0.0358431 1.01381C0.0358661 1.01407 0.0358912 1.01435 0.0359184 1.01465C0.0359727 1.01526 0.0360352 1.01595 0.0361062 1.01672C0.0362482 1.01826 0.0364244 1.02014 0.0366376 1.02235C0.037064 1.02678 0.0376383 1.03254 0.0383832 1.03962C0.039873 1.05378 0.042045 1.07324 0.0450798 1.09792C0.0511494 1.14728 0.0606699 1.21749 0.075086 1.30793C0.10392 1.48882 0.152329 1.75056 0.231863 2.08807C0.390953 2.76317 0.674437 3.74083 1.17447 4.98039L2.30335 4.525C1.82677 3.34359 1.56184 2.42488 1.41668 1.80886C1.34408 1.5008 1.3014 1.26829 1.27718 1.11632C1.26506 1.04033 1.25756 0.984462 1.25325 0.949343C1.25109 0.931782 1.24972 0.919408 1.24897 0.912297C1.2486 0.908741 1.24838 0.906501 1.24829 0.905587C1.24825 0.90513 1.24824 0.905004 1.24826 0.905211C1.24826 0.905315 1.24828 0.905501 1.24831 0.905771C1.24832 0.905906 1.24833 0.906062 1.24835 0.906238C1.24836 0.906327 1.24837 0.906475 1.24837 0.906519C1.24839 0.906672 1.2484 0.906831 0.64209 0.959961ZM5.08817 12.0327C6.40708 13.9282 8.0677 16.0191 10.1579 18.2667L11.0493 17.4378C8.9966 15.2305 7.37227 13.1841 6.08736 11.3374L5.08817 12.0327ZM15.9164 23.8303C17.762 25.4474 19.8211 27.1186 22.1187 28.8331L22.8467 27.8576C20.5736 26.1613 18.5393 24.5101 16.7186 22.9148L15.9164 23.8303ZM28.6692 33.397C30.7744 34.7706 33.0341 36.1644 35.4595 37.5734L36.071 36.5209C33.6631 35.122 31.4214 33.7393 29.3344 32.3776L28.6692 33.397ZM42.4434 41.4239C44.7004 42.6064 47.0774 43.7963 49.5807 44.9908L50.1049 43.8922C47.6149 42.7041 45.2515 41.5209 43.0084 40.3456L42.4434 41.4239ZM56.8115 48.2953C58.0153 48.8225 59.2446 49.3501 60.4999 49.8779L60.9717 48.7558C59.7218 48.2303 58.4981 47.705 57.2999 47.1803L56.8115 48.2953ZM60.4999 49.8779C61.8125 50.4298 63.1155 50.9568 64.4087 51.4598L64.85 50.3253C63.567 49.8263 62.2742 49.3034 60.9717 48.7558L60.4999 49.8779ZM72.3078 54.2808C75.0428 55.1706 77.7287 55.954 80.3629 56.6397L80.6696 55.4616C78.0588 54.7821 75.3963 54.0056 72.6844 53.1233L72.3078 54.2808ZM88.5567 58.5C91.3884 59.0485 94.1516 59.4855 96.843 59.8234L96.9947 58.6157C94.3298 58.2811 91.5932 57.8483 88.7882 57.305L88.5567 58.5ZM105.202 60.5815C108.104 60.7426 110.906 60.7912 113.603 60.7459L113.583 59.5288C110.914 59.5736 108.141 59.5255 105.27 59.3661L105.202 60.5815ZM122.002 60.2913C124.937 60.0211 127.717 59.6464 130.332 59.1987L130.127 57.9989C127.541 58.4414 124.793 58.8119 121.89 59.0792L122.002 60.2913ZM138.56 57.4454C141.565 56.6746 144.254 55.8359 146.605 55.0063L146.2 53.8584C143.881 54.6768 141.226 55.5048 138.257 56.2663L138.56 57.4454ZM154.396 51.8074C155.614 51.2258 156.544 50.7349 157.171 50.3881C157.485 50.2147 157.723 50.0774 157.884 49.9827C157.965 49.9353 158.026 49.8986 158.067 49.8734C158.088 49.8609 158.104 49.8511 158.115 49.8444C158.12 49.841 158.125 49.8384 158.128 49.8365C158.129 49.8356 158.13 49.8349 158.131 49.8343C158.132 49.834 158.132 49.8338 158.132 49.8336C158.132 49.8335 158.133 49.8335 158.133 49.8334C158.133 49.8334 158.133 49.8333 158.133 49.8333C158.133 49.8333 158.133 49.8332 157.811 49.3169C157.489 48.8005 157.489 48.8004 157.489 48.8004C157.489 48.8004 157.489 48.8004 157.489 48.8004C157.489 48.8004 157.489 48.8004 157.489 48.8004C157.489 48.8004 157.489 48.8004 157.489 48.8005C157.488 48.8008 157.488 48.8012 157.487 48.8018C157.485 48.8029 157.482 48.8049 157.477 48.8076C157.468 48.813 157.455 48.8213 157.436 48.8326C157.399 48.855 157.343 48.889 157.267 48.9336C157.115 49.0229 156.886 49.1548 156.583 49.3227C155.975 49.6585 155.066 50.1383 153.872 50.709L154.396 51.8074ZM1.2484 0.906831C1.21906 0.571975 0.923815 0.324308 0.58896 0.353651C0.254104 0.382994 0.00643671 0.678235 0.0357798 1.01309L1.2484 0.906831ZM60.7358 49.3169L60.4999 49.8779L60.7358 49.3169ZM158.404 49.4542C158.48 49.1267 158.276 48.7998 157.948 48.7239L152.612 47.4879C152.284 47.412 151.957 47.616 151.881 47.9435C151.806 48.2709 152.01 48.5979 152.337 48.6737L157.081 49.7724L155.982 54.5159C155.906 54.8434 156.11 55.1704 156.437 55.2462C156.765 55.3221 157.092 55.1181 157.168 54.7906L158.404 49.4542ZM0.64209 0.959961C0.0357798 1.01309 0.0357946 1.01326 0.0358099 1.01343C0.0358157 1.0135 0.0358315 1.01368 0.0358431 1.01381C0.0358661 1.01407 0.0358912 1.01435 0.0359184 1.01465C0.0359727 1.01526 0.0360352 1.01595 0.0361062 1.01672C0.0362482 1.01826 0.0364244 1.02014 0.0366376 1.02235C0.037064 1.02678 0.0376383 1.03254 0.0383832 1.03962C0.039873 1.05378 0.042045 1.07324 0.0450798 1.09792C0.0511494 1.14728 0.0606699 1.21749 0.075086 1.30793C0.10392 1.48882 0.152329 1.75056 0.231863 2.08807C0.390953 2.76317 0.674437 3.74083 1.17447 4.98039L2.30335 4.525C1.82677 3.34359 1.56184 2.42488 1.41668 1.80886C1.34408 1.5008 1.3014 1.26829 1.27718 1.11632C1.26506 1.04033 1.25756 0.984462 1.25325 0.949343C1.25109 0.931782 1.24972 0.919408 1.24897 0.912297C1.2486 0.908741 1.24838 0.906501 1.24829 0.905587C1.24825 0.90513 1.24824 0.905004 1.24826 0.905211C1.24826 0.905315 1.24828 0.905501 1.24831 0.905771C1.24832 0.905906 1.24833 0.906062 1.24835 0.906238C1.24836 0.906327 1.24837 0.906475 1.24837 0.906519C1.24839 0.906672 1.2484 0.906831 0.64209 0.959961ZM5.08817 12.0327C6.40708 13.9282 8.0677 16.0191 10.1579 18.2667L11.0493 17.4378C8.9966 15.2305 7.37227 13.1841 6.08736 11.3374L5.08817 12.0327ZM15.9164 23.8303C17.762 25.4474 19.8211 27.1186 22.1187 28.8331L22.8467 27.8576C20.5736 26.1613 18.5393 24.5101 16.7186 22.9148L15.9164 23.8303ZM28.6692 33.397C30.7744 34.7706 33.0341 36.1644 35.4595 37.5734L36.071 36.5209C33.6631 35.122 31.4214 33.7393 29.3344 32.3776L28.6692 33.397ZM42.4434 41.4239C44.7004 42.6064 47.0774 43.7963 49.5807 44.9908L50.1049 43.8922C47.6149 42.7041 45.2515 41.5209 43.0084 40.3456L42.4434 41.4239ZM56.8115 48.2953C58.0153 48.8225 59.2446 49.3501 60.4999 49.8779L60.9717 48.7558C59.7218 48.2303 58.4981 47.705 57.2999 47.1803L56.8115 48.2953ZM60.4999 49.8779C61.8125 50.4298 63.1155 50.9568 64.4087 51.4598L64.85 50.3253C63.567 49.8263 62.2742 49.3034 60.9717 48.7558L60.4999 49.8779ZM72.3078 54.2808C75.0428 55.1706 77.7287 55.954 80.3629 56.6397L80.6696 55.4616C78.0588 54.7821 75.3963 54.0056 72.6844 53.1233L72.3078 54.2808ZM88.5567 58.5C91.3884 59.0485 94.1516 59.4855 96.843 59.8234L96.9947 58.6157C94.3298 58.2811 91.5932 57.8483 88.7882 57.305L88.5567 58.5ZM105.202 60.5815C108.104 60.7426 110.906 60.7912 113.603 60.7459L113.583 59.5288C110.914 59.5736 108.141 59.5255 105.27 59.3661L105.202 60.5815ZM122.002 60.2913C124.937 60.0211 127.717 59.6464 130.332 59.1987L130.127 57.9989C127.541 58.4414 124.793 58.8119 121.89 59.0792L122.002 60.2913ZM138.56 57.4454C141.565 56.6746 144.254 55.8359 146.605 55.0063L146.2 53.8584C143.881 54.6768 141.226 55.5048 138.257 56.2663L138.56 57.4454ZM154.396 51.8074C155.614 51.2258 156.544 50.7349 157.171 50.3881C157.485 50.2147 157.723 50.0774 157.884 49.9827C157.965 49.9353 158.026 49.8986 158.067 49.8734C158.088 49.8609 158.104 49.8511 158.115 49.8444C158.12 49.841 158.125 49.8384 158.128 49.8365C158.129 49.8356 158.13 49.8349 158.131 49.8343C158.132 49.834 158.132 49.8338 158.132 49.8336C158.132 49.8335 158.133 49.8335 158.133 49.8334C158.133 49.8334 158.133 49.8333 158.133 49.8333C158.133 49.8333 158.133 49.8332 157.811 49.3169C157.489 48.8005 157.489 48.8004 157.489 48.8004C157.489 48.8004 157.489 48.8004 157.489 48.8004C157.489 48.8004 157.489 48.8004 157.489 48.8004C157.489 48.8004 157.489 48.8004 157.489 48.8005C157.488 48.8008 157.488 48.8012 157.487 48.8018C157.485 48.8029 157.482 48.8049 157.477 48.8076C157.468 48.813 157.455 48.8213 157.436 48.8326C157.399 48.855 157.343 48.889 157.267 48.9336C157.115 49.0229 156.886 49.1548 156.583 49.3227C155.975 49.6585 155.066 50.1383 153.872 50.709L154.396 51.8074Z" fill="#A04D07"/>
</svg>
