<svg width="17" height="15" viewBox="0 0 17 15" fill="none" xmlns="http://www.w3.org/2000/svg">
<g id="Clip path group">
<mask id="mask0_5_54" style="mask-type:luminance" maskUnits="userSpaceOnUse" x="0" y="0" width="17" height="15">
<g id="clip1">
<path id="Vector" d="M9.66846 0.679932H7.38611C3.59808 0.679932 0.527283 3.75073 0.527283 7.53876C0.527283 11.3268 3.59808 14.3976 7.38611 14.3976H9.66846C13.4565 14.3976 16.5273 11.3268 16.5273 7.53876C16.5273 3.75073 13.4565 0.679932 9.66846 0.679932Z" fill="white"/>
</g>
</mask>
<g mask="url(#mask0_5_54)">
<g id="Group">
<path id="Vector_2" d="M2.53721 0.827191C2.439 0.753329 2.31727 0.717422 2.19451 0.72622C2.07174 0.734915 1.95614 0.787601 1.86816 0.874763C1.78121 0.961821 1.72901 1.07732 1.7198 1.20018C1.70362 1.4429 1.90742 1.62966 2.07938 1.80172L14.5198 14.2492C14.5822 14.3119 14.661 14.3569 14.7469 14.3795C14.8329 14.4021 14.9229 14.4016 15.0088 14.3781C15.0958 14.3555 15.1745 14.31 15.237 14.2461C15.3311 14.1505 15.3832 14.022 15.3832 13.8881C15.3832 13.7541 15.3311 13.6257 15.237 13.53L2.53721 0.827191Z" fill="black"/>
<path id="Vector_3" d="M8.67758 10.7505C8.12311 10.7772 7.57169 10.6597 7.07553 10.4096C6.58039 10.1594 6.15788 9.78504 5.84996 9.32315C5.54305 8.86116 5.35992 8.32735 5.32003 7.77369C5.30872 7.61677 5.309 7.45977 5.32064 7.30393C5.37359 6.59484 5.28763 5.82817 4.7855 5.3247C4.17752 4.71507 3.20294 4.65842 2.56681 5.23861C1.90369 5.84341 1.27313 6.48364 0.678608 7.15661C0.583467 7.26065 0.531281 7.3964 0.531281 7.53717C0.531281 7.67793 0.583467 7.81369 0.678608 7.91773C2.99677 10.4753 5.03972 12.683 8.52617 12.683C9.05309 12.6789 9.57591 12.6143 10.0849 12.4915C10.7831 12.3231 10.934 11.4669 10.4252 10.9599C10.1138 10.6495 9.6436 10.5844 9.21418 10.6788C9.038 10.7175 8.85853 10.7416 8.67758 10.7505Z" fill="black"/>
<path id="Vector_4" d="M16.3787 7.89634C16.4707 7.79618 16.524 7.66585 16.527 7.52979C16.5301 7.39373 16.483 7.26104 16.3961 7.15669C14.528 4.88866 11.9378 2.39557 8.51884 2.39557C7.99474 2.39599 7.47419 2.45805 6.9676 2.57934C6.26882 2.74664 6.11893 3.60283 6.62701 4.11091C6.941 4.4249 7.41658 4.48909 7.85068 4.39563C8.02404 4.35831 8.20063 4.33562 8.37866 4.32805C8.93314 4.30155 9.48455 4.4191 9.97969 4.66933C10.4759 4.91956 10.8973 5.29398 11.2053 5.75588C11.5122 6.21777 11.6953 6.75158 11.7352 7.30513C11.7464 7.46035 11.7462 7.61565 11.735 7.76983C11.6829 8.48159 11.7698 9.25126 12.2747 9.75562C12.8838 10.3641 13.8582 10.4204 14.4925 9.83827C15.1576 9.22783 15.7873 8.5795 16.3787 7.89634Z" fill="black"/>
<path id="Vector_5" d="M6.24896 7.71406C6.29295 8.25769 6.52827 8.76797 6.91395 9.15365C7.29963 9.53922 7.81009 9.77493 8.35332 9.8184C8.73641 9.84852 8.86262 9.39879 8.59089 9.12707L6.9389 7.47508C6.66814 7.20432 6.21995 7.33224 6.24896 7.71406Z" fill="black"/>
<path id="Vector_6" d="M10.8137 7.53916C10.8137 7.47383 10.7461 7.42992 10.6844 7.45137C10.5173 7.50943 10.3417 7.53924 10.1641 7.53916C10.1232 7.53916 10.1027 7.58853 10.1315 7.61752L10.4448 7.93272C10.568 8.05669 10.7758 8.00244 10.7969 7.82894C10.8086 7.73292 10.8141 7.63613 10.8137 7.53916Z" fill="black"/>
<path id="Vector_7" d="M8.52711 5.86035C8.52627 5.69097 8.55165 5.5227 8.60155 5.3612C8.61729 5.31027 8.58041 5.25677 8.52711 5.25677C8.4255 5.25729 8.3241 5.26466 8.22368 5.27878C8.05855 5.302 8.00766 5.50049 8.12557 5.61841L8.41622 5.90907C8.45773 5.95058 8.52711 5.91906 8.52711 5.86035Z" fill="black"/>
</g>
</g>
</g>
</svg>
