<svg width="32" height="33" viewBox="0 0 32 33" fill="none" xmlns="http://www.w3.org/2000/svg">
<path d="M19.8467 24.4815C19.0672 24.4815 18.4023 24.2059 17.852 23.6548C17.3018 23.1037 17.0263 22.4392 17.0254 21.6615C17.0245 20.8837 17.3 20.2184 17.852 19.6655C18.404 19.1126 19.0689 18.8375 19.8467 18.8401C20.6245 18.8428 21.2894 19.1184 21.8414 19.6668C22.3934 20.2152 22.6685 20.8801 22.6667 21.6615C22.6649 22.4428 22.3894 23.1077 21.84 23.6561C21.2907 24.2046 20.6263 24.4797 19.8467 24.4815ZM7.48671 28.4815C6.87337 28.4815 6.36137 28.2761 5.95071 27.8655C5.54004 27.4548 5.33426 26.9424 5.33337 26.3281V9.30147C5.33337 8.68814 5.53915 8.17614 5.95071 7.76547C6.36226 7.3548 6.87471 7.14903 7.48804 7.14814H9.84671V4.1748H11.2827V7.14814H20.8214V4.1748H22.1547V7.14814H24.5134C25.1267 7.14814 25.6392 7.35392 26.0507 7.76547C26.4623 8.17703 26.6676 8.68947 26.6667 9.3028V26.3281C26.6667 26.9415 26.4614 27.4539 26.0507 27.8655C25.64 28.277 25.1272 28.4824 24.512 28.4815H7.48671ZM7.48671 27.1481H24.5134C24.7178 27.1481 24.9058 27.0628 25.0774 26.8921C25.2489 26.7215 25.3343 26.533 25.3334 26.3268V14.6361H6.66671V26.3281C6.66671 26.5326 6.75204 26.7206 6.92271 26.8921C7.09337 27.0637 7.28137 27.149 7.48671 27.1481ZM6.66671 13.3015H25.3334V9.30147C25.3334 9.09703 25.248 8.90903 25.0774 8.73747C24.9067 8.56592 24.7183 8.48058 24.512 8.48147H7.48804C7.28271 8.48147 7.09426 8.5668 6.92271 8.73747C6.75115 8.90814 6.66582 9.09658 6.66671 9.3028V13.3015Z" fill="#737373"/>
</svg>
