<svg width="29" height="28" viewBox="0 0 29 28" fill="none" xmlns="http://www.w3.org/2000/svg">
<g id="formkit:facebook">
<path id="Vector" d="M14.5455 2.15723C7.94887 2.15723 2.61365 7.52654 2.61365 14.1572C2.61365 20.1402 6.97728 25.1175 12.6875 26.0209V17.6345H9.65342V14.1572H12.6875V11.5152C12.6875 8.49814 14.4773 6.84473 17.1875 6.84473C18.5 6.84473 19.8636 7.08336 19.8636 7.08336V10.0322H18.3636C16.8807 10.0322 16.4205 10.9527 16.4205 11.9072V14.1572H19.7273L19.1989 17.6345H16.4205V26.0209C22.1307 25.1175 26.4943 20.1572 26.4943 14.1572C26.4943 7.52654 21.1591 2.15723 14.5625 2.15723H14.5455Z" fill="white"/>
</g>
</svg>
