<svg width="1440" height="400" viewBox="0 0 1440 400" fill="none" xmlns="http://www.w3.org/2000/svg">
<path d="M1165.56 149.465C1183.79 116.544 1202 102.725 1232.58 97.8708C1337.71 81.1862 1319.74 236.468 1268.47 284.268C1204.24 353.984 1106.25 316.168 1102.63 221.608C1096.8 159.184 1102.59 89.1919 1118.38 28.5724C1127.43 5.67694 1176 11.1331 1175.86 28.0829C1176.2 68.2851 1169.23 108.069 1165.57 149.475L1165.56 149.465ZM1185.65 240.934C1186.2 265.105 1214.63 256.558 1225.1 243.627C1241.34 218.069 1243.27 163.324 1211.85 172.115C1183.89 179.142 1183.26 222.689 1185.65 240.934Z" fill="#BD7014" fill-opacity="0.2"/>
<path d="M1082.63 216.56C1079.22 243.606 1073.72 270.184 1063.15 295.455C1060.94 300.738 1058.39 306.051 1055.04 310.671C1047.69 320.86 1035.76 324.817 1024.47 321.635C1013.47 318.524 1004.26 308.428 1004.11 296.322C1003.96 284.91 1005.17 273.264 1007.55 262.096C1010.89 246.431 1016.07 231.164 1020.04 215.622C1022.3 206.872 1023.97 197.938 1025.45 189.014C1027.35 177.653 1023.61 167.801 1015.96 159.49C1010.57 153.636 1005.55 153.136 1000.01 158.898C994.924 164.171 990.324 170.218 986.867 176.674C973.13 202.272 963.819 229.471 959.658 258.292C957.455 273.549 953.569 288.061 944.758 301.034C938.781 309.825 931.143 316.515 921.546 320.829C913.591 324.398 905.902 324.439 899.232 321.186C895.346 319.289 891.807 316.27 888.758 312.191C884.923 307.041 882.16 301.472 880.334 295.608C878.519 289.805 877.632 283.727 877.509 277.475C877.254 263.463 877.744 249.44 878.131 235.427C878.835 210.115 879.865 184.721 875.48 159.714C870.686 164.793 866.372 170.555 863.089 176.684C849.351 202.282 840.04 229.482 835.879 258.302C833.676 273.559 829.791 288.072 820.979 301.044C815.003 309.835 807.364 316.525 797.768 320.839C785.183 326.479 773.281 323.328 764.98 312.201C757.341 301.952 753.965 290.06 753.731 277.486C753.476 263.473 753.965 249.45 754.353 235.438C755.087 209.034 756.168 182.548 751.12 156.512C750.325 152.453 749.478 148.394 748.499 144.345C748.142 143.488 747.826 142.611 747.53 141.704C744.389 131.913 741.758 121.898 737.781 112.465C719.168 68.428 667.972 47.3478 621.794 49.775C602.927 50.7643 586.344 50.856 571.811 58.3621C541.043 74.2818 521.451 98.7887 506.398 134.677C494.864 162.203 489.591 191.411 485.583 220.905C481.718 249.256 469.225 272.509 443.505 287.205C417.978 301.789 390.707 296.026 373.758 272.019C369.75 266.339 366.884 259.853 363.396 253.784C361.203 249.96 358.837 246.248 356.849 242.964C347.986 243.362 345.11 249.124 342.479 254.651C336.982 266.176 332.576 278.271 326.416 289.397C322.113 297.148 316.677 305.001 309.895 310.508C290.375 326.346 265.399 322.4 250.183 302.258C242.779 292.457 238.72 281.341 237.649 269.174C234.131 229.216 232.479 189.218 240.199 149.607C242.993 135.217 242.759 120.889 248.725 107.478C255.956 91.2113 274.741 87.2645 289.641 97.2079C295.26 100.951 298.33 106.152 297.739 112.852C296.739 124.305 294.383 135.778 292.649 147.129C290.426 161.774 289.794 169.586 291.161 190.911C291.548 196.836 290.396 202.364 296.821 207.504C298.83 202.833 300.604 198.835 302.267 194.807C308.07 180.723 313.199 166.302 319.839 152.626C324.091 143.856 329.751 135.401 336.278 128.16C344.662 118.88 354.809 118.737 363.274 127.875C370.749 135.942 377.388 145.1 382.814 154.686C390.514 168.281 396.765 182.691 403.659 196.755C405.108 199.712 406.25 202.904 408.157 205.525C412.083 210.869 418.233 210.207 420.456 203.945C422.771 197.377 424.219 190.462 425.77 183.65C428.595 171.198 431.001 158.664 433.928 146.232C446.615 92.2311 479.475 52.9569 524.817 23.1163C545.52 9.49119 580.327 1.03673 605.527 0.210657C685.87 -2.45113 751.467 19.8324 787.192 83.0117C791.598 90.8135 803.927 123.52 806.62 131.974C808.088 136.604 810.047 141.071 812.3 146.976C824.59 139.725 846.771 101.512 869.432 91.9761C885.668 84.725 900.129 77.4433 917.518 81.3697C940.933 85.3471 955.711 100.043 960.841 123.122C961.524 122.357 962.217 121.613 962.931 120.879C972.65 110.864 982.288 100.584 993.21 91.9761C1007.16 80.9516 1023.87 78.4122 1041.3 81.3697C1067.47 85.8162 1082.83 103.633 1086.03 131.556C1089.31 160.132 1086.18 188.351 1082.63 216.591V216.56Z" fill="#BD7014" fill-opacity="0.2"/>
<path d="M663.8 218.772C633.857 244.421 621.895 282.379 586.761 302.725C483.033 358.082 499.381 170.819 543.061 124.905C579.071 63.9392 680.841 62.6033 706.654 132.228C729.672 171.818 763.857 368.362 684.421 317.013C663.943 292.874 677.129 249.561 663.8 218.762V218.772ZM561.754 225.911C574.951 267.826 640.7 169.044 618.906 153.492C588.729 149.025 566.17 200.425 561.754 225.911Z" fill="#BD7014" fill-opacity="0.2"/>
<path d="M121.672 218.772C115.573 224.167 111.116 227.064 108.037 231.041C102.254 238.517 97.1956 246.573 91.9536 254.457C79.2566 273.569 63.5305 289.754 44.6329 302.726C35.3523 309.1 25.2864 313.628 13.701 313.975C-0.270828 314.393 -11.0098 309.039 -18.4546 297.025C-26.2258 284.491 -30.397 270.652 -31.835 256.252C-36.5874 208.645 -27.0213 164.262 0.942772 124.906C15.5571 104.336 34.1285 87.59 59.5736 82.0828C105.579 72.1189 146.627 89.1708 164.546 132.229C174.408 155.92 180.292 180.671 186.36 205.464C191.541 226.625 196.793 247.858 203.82 268.439C211.826 291.895 225.512 311.68 246.96 325.57C265.133 337.339 284.775 341.133 305.937 339.022C312.087 338.41 318.247 337.88 324.386 337.176C331.046 336.411 335.268 339.726 338.531 345.06C345.731 356.829 344.079 373.829 334.748 384.14C325.895 393.93 314.228 398.408 301.735 399.071C247.306 401.957 199.465 388.148 165.851 341.766C149.677 319.451 140.539 293.782 133.798 267.297C130.85 255.742 128.892 243.932 126.282 232.285C125.506 228.818 124.017 225.514 121.713 218.772H121.672ZM19.6263 225.911C19.9731 231.449 21.7476 233.734 25.1029 235.936C27.8156 237.711 33.588 236.405 37.5144 234.58C38.9014 233.937 40.4107 233.009 41.6447 231.949C61.5623 214.775 75.0752 193.613 81.0107 167.892C82.2447 162.538 82.1835 156.715 76.7783 153.502C71.6995 150.494 66.4269 151.932 61.807 155.45C58.8597 157.694 55.7186 159.744 53.067 162.294C36.9331 177.826 26.9386 196.958 20.7379 218.242C20.279 219.802 19.9628 222.801 19.6161 225.921L19.6263 225.911Z" fill="#BD7014" fill-opacity="0.2"/>
<path d="M1325.87 205.095C1327.23 150.993 1349.73 81.8983 1410.12 69.0381C1418.89 66.9474 1428.61 66.7333 1437.55 68.0183C1467.73 73.4438 1476.73 111.219 1471.58 137.306C1465.4 177.743 1439.36 214.274 1401.01 229.796C1391.86 234.212 1391.02 235.477 1392.91 242.055C1395.48 250.999 1399.8 254.843 1408.07 253.344C1421.27 250.958 1433.99 245.706 1447.06 242.768C1462.1 240.555 1473.71 251.039 1472.82 266.245C1471.75 284.429 1460.71 296.29 1445.98 304.795C1429.47 314.321 1411.5 314.616 1393.16 311.037C1343.8 302.083 1325.36 250.621 1325.87 205.095ZM1387.14 177.396C1404.4 169.799 1418.91 155.735 1419.28 138.551C1418.61 133.88 1416.94 129.484 1411.77 127.954C1406.58 126.425 1403.82 129.913 1400.04 132.993C1390.13 141.1 1390.13 147.291 1386.15 157.081C1381.15 169.442 1382.7 175.755 1387.13 177.396H1387.14Z" fill="#BD7014" fill-opacity="0.2"/>
<path d="M1447.6 362.94C1447.58 380.849 1435.71 393.342 1418.91 393.128C1399.92 392.883 1385.84 379.717 1385.86 362.216C1385.88 344.542 1399.02 329.826 1414.67 329.938C1432.68 330.071 1447.62 345.052 1447.6 362.94Z" fill="#BD7014" fill-opacity="0.2"/>
</svg>
