<svg width="84" height="83" viewBox="0 0 84 83" fill="none" xmlns="http://www.w3.org/2000/svg">
<rect x="0.709106" y="0.104431" width="82.6707" height="82.6707" rx="41.3354" fill="#F3F3F3"/>
<path d="M61.3451 37.5848H59.7596V37.5031H42.0444V45.3765H53.1685C51.5456 49.9598 47.1848 53.2499 42.0444 53.2499C35.5223 53.2499 30.2343 47.9619 30.2343 41.4398C30.2343 34.9177 35.5223 29.6297 42.0444 29.6297C45.055 29.6297 47.794 30.7654 49.8794 32.6206L55.4469 27.0531C51.9314 23.7768 47.2291 21.7563 42.0444 21.7563C31.1742 21.7563 22.3609 30.5696 22.3609 41.4398C22.3609 52.31 31.1742 61.1233 42.0444 61.1233C52.9146 61.1233 61.7279 52.31 61.7279 41.4398C61.7279 40.12 61.5921 38.8317 61.3451 37.5848Z" fill="#FFC107"/>
<path d="M24.6304 32.2781L31.0974 37.0208C32.8473 32.6885 37.0852 29.6297 42.0444 29.6297C45.055 29.6297 47.794 30.7654 49.8794 32.6206L55.4469 27.0531C51.9314 23.7768 47.2291 21.7563 42.0444 21.7563C34.484 21.7563 27.9274 26.0247 24.6304 32.2781Z" fill="#FF3D00"/>
<path d="M42.0444 61.1232C47.1287 61.1232 51.7484 59.1775 55.2412 56.0134L49.1492 50.8583C47.1066 52.4117 44.6106 53.2519 42.0444 53.2498C36.9248 53.2498 32.5777 49.9853 30.94 45.4296L24.5212 50.375C27.7788 56.7495 34.3944 61.1232 42.0444 61.1232Z" fill="#4CAF50"/>
<path d="M61.3451 37.5847H59.7596V37.5031H42.0444V45.3765H53.1686C52.3922 47.5578 50.9939 49.4639 49.1462 50.8593L49.1492 50.8573L55.2412 56.0124C54.8102 56.4041 61.7279 51.2815 61.7279 41.4398C61.7279 40.12 61.5921 38.8317 61.3451 37.5847Z" fill="#1976D2"/>
</svg>
