<svg width="84" height="89" viewBox="0 0 84 89" fill="none" xmlns="http://www.w3.org/2000/svg">
<rect width="84" height="89" fill="#1E1E1E"/>
<g clip-path="url(#clip0_1_5)">
<rect width="1440" height="6526" transform="translate(-678 -4782)" fill="#F5FFFF"/>
<g filter="url(#filter0_dd_1_5)">
<rect x="6.19751" y="4.93506" width="71.4403" height="71.4403" rx="5.95954" fill="#F5FFFF"/>
</g>
<path fill-rule="evenodd" clip-rule="evenodd" d="M36.1843 28.4155H47.9806C49.4183 28.4155 50.1365 28.4155 50.717 28.6177C51.2641 28.8121 51.7591 29.1298 52.1637 29.5463C52.5683 29.9627 52.8717 30.4667 53.0502 31.0192C53.2462 31.617 53.2462 32.3563 53.2462 33.8361V51.2069C53.2462 52.2712 52.0244 52.8369 51.2516 52.1298C51.0348 51.9295 50.7505 51.8182 50.4553 51.8182C50.1601 51.8182 49.8757 51.9295 49.6589 52.1298L49.0598 52.6781C48.68 53.0293 48.1817 53.2244 47.6643 53.2244C47.147 53.2244 46.6487 53.0293 46.2689 52.6781C45.889 52.3268 45.3907 52.1318 44.8734 52.1318C44.3561 52.1318 43.8577 52.3268 43.4779 52.6781C43.0981 53.0293 42.5998 53.2244 42.0825 53.2244C41.5651 53.2244 41.0668 53.0293 40.687 52.6781C40.3072 52.3268 39.8088 52.1318 39.2915 52.1318C38.7742 52.1318 38.2759 52.3268 37.896 52.6781C37.5162 53.0293 37.0179 53.2244 36.5006 53.2244C35.9832 53.2244 35.4849 53.0293 35.1051 52.6781L34.506 52.1298C34.2892 51.9295 34.0048 51.8182 33.7096 51.8182C33.4144 51.8182 33.1301 51.9295 32.9133 52.1298C32.1405 52.8369 30.9187 52.2712 30.9187 51.2069V33.8361C30.9187 32.3563 30.9187 31.6158 31.1147 31.0204C31.4868 29.8879 32.3489 28.9998 33.4479 28.6177C34.0284 28.4155 34.7466 28.4155 36.1843 28.4155ZM35.8804 34.3075C35.6336 34.3075 35.397 34.4055 35.2225 34.58C35.0481 34.7545 34.9501 34.9911 34.9501 35.2378C34.9501 35.4846 35.0481 35.7212 35.2225 35.8956C35.397 36.0701 35.6336 36.1681 35.8804 36.1681H36.5006C36.7473 36.1681 36.9839 36.0701 37.1584 35.8956C37.3329 35.7212 37.4309 35.4846 37.4309 35.2378C37.4309 34.9911 37.3329 34.7545 37.1584 34.58C36.9839 34.4055 36.7473 34.3075 36.5006 34.3075H35.8804ZM40.2218 34.3075C39.9751 34.3075 39.7385 34.4055 39.564 34.58C39.3895 34.7545 39.2915 34.9911 39.2915 35.2378C39.2915 35.4846 39.3895 35.7212 39.564 35.8956C39.7385 36.0701 39.9751 36.1681 40.2218 36.1681H48.2845C48.5313 36.1681 48.7679 36.0701 48.9424 35.8956C49.1168 35.7212 49.2148 35.4846 49.2148 35.2378C49.2148 34.9911 49.1168 34.7545 48.9424 34.58C48.7679 34.4055 48.5313 34.3075 48.2845 34.3075H40.2218ZM35.8804 38.649C35.6336 38.649 35.397 38.747 35.2225 38.9214C35.0481 39.0959 34.9501 39.3325 34.9501 39.5793C34.9501 39.826 35.0481 40.0626 35.2225 40.2371C35.397 40.4116 35.6336 40.5096 35.8804 40.5096H36.5006C36.7473 40.5096 36.9839 40.4116 37.1584 40.2371C37.3329 40.0626 37.4309 39.826 37.4309 39.5793C37.4309 39.3325 37.3329 39.0959 37.1584 38.9214C36.9839 38.747 36.7473 38.649 36.5006 38.649H35.8804ZM40.2218 38.649C39.9751 38.649 39.7385 38.747 39.564 38.9214C39.3895 39.0959 39.2915 39.3325 39.2915 39.5793C39.2915 39.826 39.3895 40.0626 39.564 40.2371C39.7385 40.4116 39.9751 40.5096 40.2218 40.5096H48.2845C48.5313 40.5096 48.7679 40.4116 48.9424 40.2371C49.1168 40.0626 49.2148 39.826 49.2148 39.5793C49.2148 39.3325 49.1168 39.0959 48.9424 38.9214C48.7679 38.747 48.5313 38.649 48.2845 38.649H40.2218ZM35.8804 42.9904C35.6336 42.9904 35.397 43.0884 35.2225 43.2629C35.0481 43.4374 34.9501 43.674 34.9501 43.9207C34.9501 44.1675 35.0481 44.4041 35.2225 44.5786C35.397 44.753 35.6336 44.851 35.8804 44.851H36.5006C36.7473 44.851 36.9839 44.753 37.1584 44.5786C37.3329 44.4041 37.4309 44.1675 37.4309 43.9207C37.4309 43.674 37.3329 43.4374 37.1584 43.2629C36.9839 43.0884 36.7473 42.9904 36.5006 42.9904H35.8804ZM40.2218 42.9904C39.9751 42.9904 39.7385 43.0884 39.564 43.2629C39.3895 43.4374 39.2915 43.674 39.2915 43.9207C39.2915 44.1675 39.3895 44.4041 39.564 44.5786C39.7385 44.753 39.9751 44.851 40.2218 44.851H48.2845C48.5313 44.851 48.7679 44.753 48.9424 44.5786C49.1168 44.4041 49.2148 44.1675 49.2148 43.9207C49.2148 43.674 49.1168 43.4374 48.9424 43.2629C48.7679 43.0884 48.5313 42.9904 48.2845 42.9904H40.2218Z" fill="#A04D07"/>
</g>
<defs>
<filter id="filter0_dd_1_5" x="0.237969" y="0.76338" width="83.3595" height="87.5312" filterUnits="userSpaceOnUse" color-interpolation-filters="sRGB">
<feFlood flood-opacity="0" result="BackgroundImageFix"/>
<feColorMatrix in="SourceAlpha" type="matrix" values="0 0 0 0 0 0 0 0 0 0 0 0 0 0 0 0 0 0 127 0" result="hardAlpha"/>
<feOffset dy="5.95954"/>
<feGaussianBlur stdDeviation="2.97977"/>
<feComposite in2="hardAlpha" operator="out"/>
<feColorMatrix type="matrix" values="0 0 0 0 0.827451 0 0 0 0 0.827451 0 0 0 0 0.827451 0 0 0 0.25 0"/>
<feBlend mode="normal" in2="BackgroundImageFix" result="effect1_dropShadow_1_5"/>
<feColorMatrix in="SourceAlpha" type="matrix" values="0 0 0 0 0 0 0 0 0 0 0 0 0 0 0 0 0 0 127 0" result="hardAlpha"/>
<feOffset dy="-1.19191"/>
<feGaussianBlur stdDeviation="1.48989"/>
<feComposite in2="hardAlpha" operator="out"/>
<feColorMatrix type="matrix" values="0 0 0 0 0.827451 0 0 0 0 0.827451 0 0 0 0 0.827451 0 0 0 0.5 0"/>
<feBlend mode="normal" in2="effect1_dropShadow_1_5" result="effect2_dropShadow_1_5"/>
<feBlend mode="normal" in="SourceGraphic" in2="effect2_dropShadow_1_5" result="shape"/>
</filter>
<clipPath id="clip0_1_5">
<rect width="1440" height="6526" fill="white" transform="translate(-678 -4782)"/>
</clipPath>
</defs>
</svg>
