<svg width="26" height="26" viewBox="0 0 26 26" fill="none" xmlns="http://www.w3.org/2000/svg">
<path id="Vector" d="M7.9363 1.50018H18.2454C21.7961 1.50018 24.6818 4.38583 24.6818 7.93654V18.2456C24.6818 19.9527 24.0037 21.5898 22.7966 22.7968C21.5895 24.0039 19.9524 24.682 18.2454 24.682H7.9363C4.38558 24.682 1.49993 21.7963 1.49993 18.2456V7.93654C1.49993 6.22951 2.17805 4.5924 3.3851 3.38534C4.59215 2.17829 6.22927 1.50018 7.9363 1.50018ZM7.69085 2.59109C6.33824 2.59109 5.04104 3.12841 4.0846 4.08484C3.12816 5.04128 2.59084 6.33848 2.59084 7.69109V18.4911C2.59084 21.3099 4.87201 23.5911 7.69085 23.5911H18.4909C19.8435 23.5911 21.1407 23.0538 22.0971 22.0973C23.0535 21.1409 23.5909 19.8437 23.5909 18.4911V7.69109C23.5909 4.87226 21.3097 2.59109 18.4909 2.59109H7.69085ZM19.534 5.79563C19.7601 5.79563 19.9769 5.88543 20.1367 6.04526L20.6188 5.56314L20.1367 6.04526C20.2965 6.20509 20.3863 6.42187 20.3863 6.6479C20.3863 6.87394 20.2965 7.09072 20.1367 7.25055C19.9769 7.41038 19.7601 7.50018 19.534 7.50018C19.308 7.50018 19.0912 7.41038 18.9314 7.25055C18.7716 7.09072 18.6818 6.87394 18.6818 6.6479C18.6818 6.42187 18.7716 6.20509 18.9314 6.04526L18.4493 5.56314L18.9314 6.04526C19.0912 5.88543 19.308 5.79563 19.534 5.79563ZM13.0908 7.63654C14.5375 7.63654 15.9249 8.21122 16.9478 9.23414C17.9707 10.2571 18.5454 11.6445 18.5454 13.0911C18.5454 14.5377 17.9707 15.9251 16.9478 16.948C15.9249 17.971 14.5375 18.5456 13.0908 18.5456C11.6442 18.5456 10.2568 17.971 9.2339 16.948C8.21097 15.9251 7.6363 14.5377 7.6363 13.0911C7.6363 11.6445 8.21097 10.2571 9.2339 9.23414C10.2568 8.21122 11.6442 7.63654 13.0908 7.63654ZM13.0908 8.72745C11.9335 8.72745 10.8236 9.18719 10.0053 10.0055C9.18695 10.8239 8.72721 11.9338 8.72721 13.0911C8.72721 14.2484 9.18695 15.3583 10.0053 16.1766C10.8236 16.995 11.9335 17.4547 13.0908 17.4547C14.2482 17.4547 15.3581 16.995 16.1764 16.1766C16.9947 15.3583 17.4545 14.2484 17.4545 13.0911C17.4545 11.9338 16.9947 10.8239 16.1764 10.0055C15.3581 9.18719 14.2482 8.72745 13.0908 8.72745Z" stroke="white" stroke-width="1.36364"/>
</svg>
