<svg width="100" height="28" viewBox="0 0 100 28" fill="none" xmlns="http://www.w3.org/2000/svg">
<path d="M79.5889 10.663C80.7991 8.47695 82.0086 7.55933 84.0388 7.23698C91.0202 6.12906 89.827 16.4403 86.4226 19.6144C82.1575 24.2438 75.6502 21.7327 75.4098 15.4536C75.0231 11.3084 75.4071 6.66067 76.4561 2.63532C77.0568 1.11498 80.2823 1.47729 80.2729 2.60281C80.2952 5.27238 79.8327 7.91419 79.5896 10.6637L79.5889 10.663ZM80.923 16.7369C80.9596 18.3419 82.847 17.7744 83.5424 16.9157C84.6206 15.2186 84.7492 11.5833 82.6628 12.1671C80.8058 12.6337 80.7638 15.5254 80.923 16.7369Z" fill="#A04D07"/>
<path d="M74.0817 15.1184C73.8556 16.9144 73.4899 18.6792 72.7883 20.3573C72.6413 20.7081 72.472 21.0609 72.2499 21.3677C71.7616 22.0443 70.9693 22.307 70.2196 22.0957C69.4896 21.8892 68.8774 21.2187 68.8679 20.4149C68.8577 19.6571 68.9383 18.8837 69.0961 18.1422C69.3182 17.102 69.6616 16.0882 69.9257 15.0561C70.0754 14.475 70.1864 13.8818 70.2846 13.2893C70.4113 12.5348 70.1627 11.8807 69.6548 11.3287C69.2966 10.94 68.9634 10.9068 68.5956 11.2894C68.2577 11.6396 67.9523 12.0411 67.7227 12.4698C66.8105 14.1696 66.1922 15.9757 65.9159 17.8895C65.7696 18.9027 65.5116 19.8663 64.9265 20.7277C64.5297 21.3115 64.0224 21.7558 63.3852 22.0422C62.857 22.2792 62.3463 22.2819 61.9034 22.0659C61.6454 21.94 61.4104 21.7395 61.2079 21.4686C60.9533 21.1266 60.7698 20.7569 60.6486 20.3675C60.528 19.9821 60.4691 19.5785 60.461 19.1634C60.444 18.2329 60.4766 17.3017 60.5023 16.3712C60.549 14.6904 60.6174 13.0041 60.3262 11.3436C60.0079 11.6809 59.7215 12.0635 59.5034 12.4705C58.5912 14.1703 57.9729 15.9764 57.6966 17.8902C57.5503 18.9033 57.2923 19.867 56.7072 20.7284C56.3104 21.3122 55.8031 21.7564 55.1659 22.0429C54.3302 22.4174 53.5399 22.2081 52.9886 21.4693C52.4814 20.7887 52.2572 19.9991 52.2417 19.1641C52.2247 18.2336 52.2572 17.3024 52.283 16.3719C52.3317 14.6186 52.4035 12.8599 52.0683 11.131C52.0155 10.8614 51.9593 10.5919 51.8942 10.3231C51.8705 10.2662 51.8496 10.2079 51.8299 10.1477C51.6213 9.49754 51.4466 8.83252 51.1825 8.2061C49.9466 5.2819 46.547 3.8821 43.4806 4.04327C42.2277 4.10896 41.1266 4.11506 40.1616 4.61349C38.1184 5.67061 36.8175 7.29796 35.8179 9.68106C35.052 11.5089 34.7019 13.4484 34.4357 15.4069C34.1791 17.2895 33.3495 18.8336 31.6415 19.8095C29.9465 20.7779 28.1356 20.3952 27.0101 18.8011C26.744 18.4239 26.5537 17.9932 26.322 17.5902C26.1764 17.3363 26.0193 17.0898 25.8873 16.8717C25.2988 16.8981 25.1078 17.2807 24.9331 17.6478C24.5681 18.413 24.2755 19.2162 23.8665 19.955C23.5807 20.4697 23.2197 20.9912 22.7694 21.3569C21.4732 22.4086 19.8147 22.1465 18.8043 20.809C18.3127 20.1582 18.0431 19.4201 17.972 18.6121C17.7384 15.9588 17.6287 13.3028 18.1413 10.6725C18.3269 9.71696 18.3113 8.76548 18.7075 7.87494C19.1876 6.79479 20.435 6.53271 21.4244 7.19299C21.7976 7.44152 22.0014 7.7869 21.9622 8.23183C21.8958 8.99234 21.7394 9.7542 21.6242 10.5079C21.4766 11.4804 21.4346 11.9992 21.5254 13.4152C21.5511 13.8087 21.4746 14.1757 21.9012 14.517C22.0346 14.2069 22.1525 13.9414 22.2628 13.6739C22.6482 12.7387 22.9888 11.7811 23.4297 10.873C23.7121 10.2906 24.0879 9.72915 24.5213 9.24833C25.078 8.63206 25.7518 8.62258 26.3139 9.22937C26.8103 9.76504 27.2512 10.3732 27.6115 11.0098C28.1228 11.9125 28.5379 12.8694 28.9957 13.8033C29.0918 13.9996 29.1677 14.2116 29.2943 14.3857C29.5551 14.7405 29.9634 14.6965 30.111 14.2807C30.2648 13.8446 30.3609 13.3854 30.4639 12.933C30.6515 12.1062 30.8113 11.2739 31.0056 10.4483C31.8481 6.86251 34.0301 4.25456 37.041 2.27304C38.4157 1.36829 40.727 0.80688 42.4004 0.752025C47.7355 0.575273 52.0913 2.05498 54.4636 6.25031C54.7561 6.76838 55.5749 8.9402 55.7537 9.50161C55.8512 9.80906 55.9812 10.1057 56.1309 10.4978C56.9469 10.0163 58.4199 7.47877 59.9246 6.84558C61.0028 6.36408 61.963 5.88055 63.1177 6.14128C64.6726 6.40539 65.6538 7.38125 65.9945 8.91378C66.0399 8.86299 66.0859 8.81356 66.1333 8.7648C66.7787 8.09978 67.4187 7.41714 68.144 6.84558C69.0704 6.11351 70.1796 5.94488 71.337 6.14128C73.0747 6.43654 74.0953 7.61963 74.3073 9.47384C74.5253 11.3714 74.3174 13.2452 74.0817 15.1204V15.1184Z" fill="#A04D07"/>
<path d="M46.27 15.2653C44.2817 16.9685 43.4873 19.489 41.1543 20.8401C34.2664 24.516 35.352 12.081 38.2525 9.03221C40.6437 4.98383 47.4016 4.89512 49.1156 9.51845C50.6441 12.1474 52.9141 25.1986 47.6393 21.7889C46.2795 20.1859 47.1551 17.3098 46.27 15.2646V15.2653ZM39.4938 15.7393C40.3701 18.5227 44.7361 11.9632 43.2889 10.9304C41.285 10.6338 39.787 14.047 39.4938 15.7393Z" fill="#A04D07"/>
<path d="M10.2708 15.2652C9.86578 15.6235 9.56984 15.8158 9.36532 16.0799C8.98135 16.5763 8.64545 17.1113 8.29736 17.6348C7.45423 18.9039 6.40997 19.9786 5.1551 20.8401C4.53883 21.2633 3.87043 21.564 3.10111 21.587C2.17333 21.6148 1.46023 21.2592 0.965864 20.4615C0.449828 19.6292 0.172849 18.7102 0.077362 17.754C-0.238219 14.5928 0.397005 11.6455 2.25392 9.03218C3.22437 7.66624 4.45757 6.55426 6.14721 6.18857C9.20212 5.52693 11.9279 6.65923 13.1178 9.51842C13.7726 11.0916 14.1634 12.7352 14.5663 14.3815C14.9103 15.7867 15.2591 17.1967 15.7257 18.5633C16.2573 20.1209 17.1661 21.4346 18.5903 22.357C19.7971 23.1385 21.1014 23.3904 22.5066 23.2502C22.915 23.2096 23.324 23.1744 23.7317 23.1277C24.1739 23.0769 24.4543 23.297 24.671 23.6512C25.1491 24.4327 25.0394 25.5616 24.4198 26.2462C23.8319 26.8964 23.0572 27.1937 22.2276 27.2377C18.6133 27.4293 15.4365 26.5124 13.2044 23.4324C12.1304 21.9507 11.5236 20.2461 11.076 18.4874C10.8802 17.7201 10.7502 16.9359 10.5769 16.1625C10.5254 15.9323 10.4265 15.7129 10.2735 15.2652H10.2708ZM3.49457 15.7393C3.5176 16.107 3.63543 16.2587 3.85824 16.405C4.03837 16.5228 4.42168 16.4361 4.6824 16.3149C4.7745 16.2723 4.87473 16.2106 4.95667 16.1402C6.27927 14.9998 7.17658 13.5946 7.57071 11.8866C7.65266 11.5311 7.64859 11.1444 7.28967 10.9311C6.95242 10.7313 6.6023 10.8268 6.29552 11.0604C6.09981 11.2094 5.89123 11.3455 5.71515 11.5148C4.6438 12.5462 3.98013 13.8167 3.56839 15.23C3.53791 15.3336 3.51692 15.5327 3.4939 15.74L3.49457 15.7393Z" fill="#A04D07"/>
<path d="M90.234 14.3571C90.324 10.7645 91.818 6.17637 95.8284 5.32241C96.4108 5.18358 97.0562 5.16936 97.6501 5.25469C99.654 5.61496 100.251 8.12336 99.9093 9.85567C99.4989 12.5408 97.77 14.9666 95.2237 15.9973C94.6155 16.2905 94.56 16.3745 94.6853 16.8113C94.8559 17.4052 95.1431 17.6605 95.6923 17.561C96.5686 17.4025 97.4138 17.0538 98.2813 16.8587C99.2802 16.7118 100.051 17.4079 99.9919 18.4177C99.9208 19.6251 99.1881 20.4127 98.2095 20.9775C97.1131 21.61 95.9198 21.6297 94.7022 21.392C91.4245 20.7974 90.2001 17.3802 90.234 14.3571ZM94.3026 12.5178C95.4485 12.0133 96.4122 11.0794 96.4365 9.93828C96.3918 9.62812 96.2815 9.33625 95.9381 9.23466C95.5934 9.13308 95.4099 9.36469 95.1593 9.56921C94.5011 10.1076 94.5011 10.5187 94.237 11.1688C93.9044 11.9896 94.0074 12.4088 94.302 12.5178H94.3026Z" fill="#A04D07"/>
<path d="M98.3171 24.8385C98.3158 26.0277 97.5275 26.8572 96.4121 26.843C95.1512 26.8268 94.2159 25.9525 94.2173 24.7904C94.2186 23.6168 95.0909 22.6396 96.1304 22.647C97.3264 22.6558 98.3185 23.6507 98.3171 24.8385Z" fill="#A04D07"/>
</svg>
