<svg width="30" height="31" viewBox="0 0 30 31" fill="none" xmlns="http://www.w3.org/2000/svg">
<g id="mdi:linkedin">
<path id="Vector" d="M23.75 3.83984C24.413 3.83984 25.0489 4.10324 25.5178 4.57208C25.9866 5.04092 26.25 5.6768 26.25 6.33984V23.8398C26.25 24.5029 25.9866 25.1388 25.5178 25.6076C25.0489 26.0764 24.413 26.3398 23.75 26.3398H6.25C5.58696 26.3398 4.95107 26.0764 4.48223 25.6076C4.01339 25.1388 3.75 24.5029 3.75 23.8398V6.33984C3.75 5.6768 4.01339 5.04092 4.48223 4.57208C4.95107 4.10324 5.58696 3.83984 6.25 3.83984H23.75ZM23.125 23.2148V16.5898C23.125 15.5091 22.6957 14.4726 21.9315 13.7084C21.1672 12.9442 20.1308 12.5148 19.05 12.5148C17.9875 12.5148 16.75 13.1648 16.15 14.1398V12.7523H12.6625V23.2148H16.15V17.0523C16.15 16.0898 16.925 15.3023 17.8875 15.3023C18.3516 15.3023 18.7967 15.4867 19.1249 15.8149C19.4531 16.1431 19.6375 16.5882 19.6375 17.0523V23.2148H23.125ZM8.6 10.7898C9.15695 10.7898 9.6911 10.5686 10.0849 10.1748C10.4787 9.78094 10.7 9.2468 10.7 8.68984C10.7 7.52734 9.7625 6.57734 8.6 6.57734C8.03973 6.57734 7.50241 6.79991 7.10624 7.19608C6.71007 7.59225 6.4875 8.12957 6.4875 8.68984C6.4875 9.85234 7.4375 10.7898 8.6 10.7898ZM10.3375 23.2148V12.7523H6.875V23.2148H10.3375Z" fill="white"/>
</g>
</svg>
