<svg width="131" height="35" viewBox="0 0 131 35" fill="none" xmlns="http://www.w3.org/2000/svg">
<path d="M103.966 12.9023C105.539 10.0605 107.111 8.86756 109.75 8.4485C118.826 7.00821 117.275 20.4128 112.849 24.5391C107.305 30.5574 98.8452 27.2929 98.5327 19.1301C98.03 13.7413 98.5292 7.6993 99.8929 2.46635C100.674 0.489905 104.867 0.960903 104.855 2.42409C104.884 5.89453 104.282 9.32888 103.966 12.9032L103.966 12.9023ZM105.7 20.7984C105.747 22.8849 108.201 22.1471 109.105 21.0308C110.507 18.8246 110.674 14.0988 107.962 14.8576C105.548 15.4642 105.493 19.2234 105.7 20.7984Z" fill="#A04D07"/>
<path d="M96.8063 18.6945C96.5122 21.0292 96.0368 23.3235 95.1247 25.5051C94.9337 25.9611 94.7136 26.4198 94.4249 26.8186C93.7901 27.6981 92.7601 28.0397 91.7855 27.765C90.8364 27.4965 90.0406 26.6249 90.0283 25.5799C90.015 24.5948 90.1198 23.5894 90.3249 22.6254C90.6137 21.2731 91.0601 19.9552 91.4034 18.6135C91.598 17.8581 91.7423 17.0869 91.87 16.3166C92.0346 15.3358 91.7115 14.4854 91.0512 13.7679C90.5855 13.2626 90.1524 13.2194 89.6743 13.7168C89.235 14.172 88.838 14.694 88.5395 15.2513C87.3537 17.4611 86.5499 19.809 86.1907 22.297C86.0005 23.614 85.6651 24.8668 84.9045 25.9866C84.3886 26.7455 83.7292 27.323 82.9007 27.6954C82.214 28.0036 81.5502 28.0071 80.9745 27.7262C80.639 27.5625 80.3336 27.3019 80.0703 26.9498C79.7393 26.5052 79.5007 26.0245 79.3431 25.5183C79.1864 25.0173 79.1098 24.4926 79.0993 23.953C79.0773 22.7433 79.1195 21.5328 79.153 20.3232C79.2137 18.1381 79.3026 15.9459 78.9241 13.7873C78.5103 14.2257 78.1379 14.7231 77.8544 15.2522C76.6685 17.4619 75.8648 19.8099 75.5056 22.2978C75.3154 23.6149 74.98 24.8677 74.2193 25.9875C73.7034 26.7464 73.044 27.3239 72.2156 27.6963C71.1292 28.1832 70.1018 27.9111 69.3852 26.9506C68.7258 26.0659 68.4344 25.0393 68.4141 23.9538C68.3921 22.7442 68.4344 21.5337 68.4678 20.3241C68.5312 18.0448 68.6246 15.7584 68.1888 13.5108C68.1201 13.1604 68.047 12.81 67.9625 12.4605C67.9317 12.3866 67.9044 12.3109 67.8789 12.2325C67.6077 11.3874 67.3806 10.5228 67.0372 9.70848C65.4306 5.90702 61.0111 4.08728 57.0247 4.29681C55.396 4.38221 53.9645 4.39013 52.71 5.03808C50.0539 6.41235 48.3627 8.52789 47.0633 11.6259C46.0676 14.0021 45.6124 16.5235 45.2664 19.0695C44.9328 21.517 43.8543 23.5242 41.634 24.7928C39.4304 26.0518 37.0763 25.5544 35.6131 23.482C35.2671 22.9916 35.0197 22.4317 34.7186 21.9078C34.5294 21.5777 34.3251 21.2573 34.1534 20.9738C33.3884 21.0081 33.1401 21.5055 32.913 21.9827C32.4385 22.9775 32.0581 24.0216 31.5264 24.9821C31.1549 25.6512 30.6856 26.3291 30.1002 26.8045C28.4152 28.1717 26.2591 27.831 24.9456 26.0923C24.3064 25.2462 23.956 24.2866 23.8636 23.2363C23.5599 19.787 23.4173 16.3342 24.0837 12.9148C24.3249 11.6726 24.3047 10.4357 24.8197 9.27798C25.4439 7.87378 27.0655 7.53307 28.3518 8.39144C28.8368 8.71453 29.1018 9.16353 29.0508 9.74194C28.9645 10.7306 28.7611 11.721 28.6115 12.7009C28.4196 13.9651 28.365 14.6395 28.4829 16.4803C28.5164 16.9918 28.4169 17.469 28.9715 17.9127C29.145 17.5095 29.2982 17.1644 29.4417 16.8166C29.9426 15.6008 30.3854 14.356 30.9586 13.1754C31.3257 12.4183 31.8143 11.6884 32.3777 11.0634C33.1014 10.2622 33.9774 10.2499 34.7081 11.0387C35.3534 11.7351 35.9265 12.5257 36.3949 13.3532C37.0596 14.5268 37.5992 15.7707 38.1944 16.9848C38.3194 17.2401 38.418 17.5157 38.5826 17.7419C38.9216 18.2032 39.4524 18.146 39.6443 17.6054C39.8442 17.0385 39.9692 16.4416 40.103 15.8535C40.3469 14.7786 40.5547 13.6966 40.8073 12.6234C41.9025 7.96181 44.7391 4.57148 48.6532 1.99551C50.4404 0.819323 53.4451 0.0894953 55.6205 0.0181849C62.5561 -0.211593 68.2187 1.71203 71.3027 7.16596C71.683 7.83944 72.7474 10.6628 72.9798 11.3926C73.1065 11.7923 73.2756 12.1779 73.4701 12.6877C74.531 12.0617 76.4458 8.76296 78.402 7.9398C79.8036 7.31386 81.0519 6.68527 82.553 7.02421C84.5743 7.36756 85.85 8.63618 86.2928 10.6285C86.3518 10.5624 86.4117 10.4982 86.4733 10.4348C87.3123 9.57026 88.1442 8.68284 89.0871 7.9398C90.2915 6.98812 91.7335 6.7689 93.2381 7.02421C95.4971 7.40805 96.8239 8.94607 97.0994 11.3565C97.3829 13.8234 97.1126 16.2594 96.8063 18.6971V18.6945Z" fill="#A04D07"/>
<path d="M60.651 18.8857C58.0662 21.0999 57.0335 24.3766 54.0006 26.133C45.0463 30.9117 46.4576 14.7462 50.2282 10.7828C53.3368 5.51987 62.1221 5.40455 64.3503 11.4149C66.3373 14.8325 69.2884 31.7991 62.4311 27.3664C60.6633 25.2826 61.8016 21.5436 60.651 18.8849V18.8857ZM51.8419 19.502C52.9812 23.1203 58.6569 14.593 56.7756 13.2505C54.1705 12.8649 52.2231 17.3019 51.8419 19.502Z" fill="#A04D07"/>
<path d="M13.852 18.8858C13.3255 19.3515 12.9408 19.6015 12.6749 19.9449C12.1757 20.5902 11.7391 21.2857 11.2866 21.9662C10.1905 23.6161 8.83296 25.0132 7.20163 26.1331C6.40048 26.6833 5.53155 27.0742 4.53145 27.1041C3.32533 27.1402 2.3983 26.678 1.75562 25.6409C1.08478 24.559 0.724704 23.3643 0.600571 22.1212C0.190316 18.0116 1.01611 14.1802 3.4301 10.7828C4.69167 9.00711 6.29484 7.56153 8.49138 7.08613C12.4628 6.226 16.0063 7.69799 17.5531 11.4149C18.4044 13.4601 18.9124 15.5967 19.4362 17.7369C19.8834 19.5637 20.3368 21.3966 20.9434 23.1732C21.6345 25.1981 22.816 26.906 24.6674 28.1051C26.2362 29.1211 27.9318 29.4486 29.7586 29.2663C30.2895 29.2135 30.8212 29.1677 31.3512 29.107C31.9261 29.0409 32.2906 29.3271 32.5723 29.7875C33.1938 30.8035 33.0512 32.271 32.2457 33.1611C31.4815 34.0063 30.4744 34.3927 29.3959 34.45C24.6973 34.6991 20.5675 33.5071 17.6658 29.5031C16.2695 27.5769 15.4807 25.361 14.8988 23.0746C14.6443 22.0772 14.4753 21.0577 14.2499 20.0523C14.183 19.753 14.0545 19.4677 13.8555 18.8858H13.852ZM5.04295 19.5021C5.07288 19.9801 5.22606 20.1773 5.51571 20.3675C5.74989 20.5207 6.24818 20.408 6.58712 20.2504C6.70686 20.1949 6.83715 20.1148 6.94368 20.0232C8.66305 18.5407 9.82955 16.7139 10.3419 14.4936C10.4485 14.0314 10.4432 13.5287 9.97657 13.2514C9.53814 12.9917 9.08299 13.1158 8.68418 13.4196C8.42975 13.6132 8.1586 13.7902 7.9297 14.0103C6.53694 15.3511 5.67417 17.0027 5.13891 18.84C5.09929 18.9747 5.072 19.2336 5.04206 19.5029L5.04295 19.5021Z" fill="#A04D07"/>
<path d="M117.804 17.7048C117.921 13.0344 119.863 7.06986 125.077 5.95971C125.834 5.77923 126.673 5.76074 127.445 5.87167C130.05 6.34003 130.827 9.60094 130.382 11.8529C129.849 15.3436 127.601 18.4971 124.291 19.8371C123.5 20.2183 123.428 20.3274 123.591 20.8953C123.813 21.6674 124.186 21.9993 124.9 21.8699C126.039 21.6638 127.138 21.2105 128.266 20.9569C129.564 20.7659 130.566 21.6709 130.489 22.9835C130.397 24.5532 129.444 25.5771 128.172 26.3114C126.747 27.1336 125.196 27.1592 123.613 26.8501C119.352 26.0772 117.76 21.6348 117.804 17.7048ZM123.093 15.3137C124.583 14.6578 125.836 13.4438 125.867 11.9603C125.809 11.5571 125.666 11.1777 125.22 11.0456C124.771 10.9136 124.533 11.2147 124.207 11.4805C123.351 12.1804 123.351 12.7148 123.008 13.56C122.576 14.627 122.71 15.172 123.093 15.3137H123.093Z" fill="#A04D07"/>
<path d="M128.312 31.3304C128.31 32.8763 127.286 33.9548 125.836 33.9363C124.196 33.9152 122.981 32.7786 122.982 31.2679C122.984 29.7422 124.118 28.4718 125.469 28.4815C127.024 28.4929 128.314 29.7862 128.312 31.3304Z" fill="#A04D07"/>
</svg>
