<svg width="30" height="30" viewBox="0 0 30 30" fill="none" xmlns="http://www.w3.org/2000/svg">
<g id="logos:drone-icon" clip-path="url(#clip0_125_193)">
<path id="Vector" d="M6.43424 3.67171L6.28989 3.80296L11.3436 8.79094C10.5997 9.99281 10.2128 11.3813 10.2279 12.7947C10.1982 13.7454 10.3649 14.6921 10.7176 15.5755C11.0703 16.4589 11.6014 17.2601 12.2777 17.929C12.954 18.5979 13.761 19.1202 14.6482 19.4631C15.5355 19.806 16.4839 19.9623 17.4343 19.9221C18.8607 19.9435 20.2635 19.5564 21.4772 18.8065L26.5572 23.8602C25.2075 25.6233 23.4656 27.0478 21.4697 28.0207C19.4738 28.9936 17.2787 29.4882 15.0584 29.4652C13.1688 29.4931 11.2927 29.1443 9.53944 28.4393C7.78617 27.7342 6.1909 26.687 4.84675 25.3588C3.5026 24.0305 2.43649 22.4478 1.71065 20.703C0.984807 18.9583 0.613777 17.0864 0.619214 15.1967C0.588607 12.9493 1.10134 10.7278 2.11378 8.72123C3.12622 6.71462 4.60841 4.98239 6.43424 3.67171ZM9.25643 1.74202C11.1893 0.863953 13.2899 0.416111 15.4129 0.429448C17.2957 0.410261 19.1635 0.765645 20.9077 1.47493C22.6519 2.18421 24.2376 3.23324 25.5727 4.56098C26.9078 5.88873 27.9655 7.46869 28.6843 9.20896C29.4032 10.9492 29.7689 12.8151 29.76 14.698C29.7825 16.826 29.3342 18.9327 28.4475 20.8674L23.9187 16.3387C24.6488 15.155 25.0351 13.7915 25.0344 12.4008C25.0735 11.4429 24.9133 10.4873 24.5642 9.59441C24.215 8.70155 23.6844 7.89084 23.0059 7.21354C22.3273 6.53624 21.5157 6.00708 20.6222 5.65951C19.7287 5.31195 18.7728 5.15354 17.815 5.19431C16.4232 5.18669 15.0578 5.57354 13.8769 6.31004L9.25643 1.74202ZM17.8936 16.5092C17.3256 16.529 16.7596 16.4326 16.2301 16.2259C15.7007 16.0192 15.2191 15.7065 14.8147 15.3071C14.4104 14.9077 14.0919 14.4299 13.8787 13.903C13.6656 13.3762 13.5622 12.8113 13.575 12.2431C13.5531 11.6695 13.6496 11.0975 13.8587 10.5629C14.0678 10.0283 14.3849 9.5425 14.7902 9.13598C15.1955 8.72945 15.6803 8.41088 16.2143 8.20018C16.7482 7.98948 17.3199 7.89118 17.8936 7.91142C18.4647 7.89874 19.0325 8.00231 19.5623 8.21585C20.0921 8.42939 20.573 8.74842 20.9757 9.15358C21.3784 9.55873 21.6945 10.0415 21.9049 10.5727C22.1152 11.1038 22.2153 11.6721 22.1992 12.2431C22.2213 12.8144 22.1251 13.3842 21.9165 13.9165C21.708 14.4489 21.3916 14.9324 20.9874 15.3367C20.5831 15.741 20.0996 16.0574 19.5672 16.2659C19.0348 16.4744 18.4651 16.5707 17.8938 16.5485L17.8936 16.5092Z" fill="#A04D07"/>
</g>
<defs>
<clipPath id="clip0_125_193">
<rect width="29.1429" height="29.1429" fill="white" transform="translate(0.618042 0.428711)"/>
</clipPath>
</defs>
</svg>
