<svg width="30" height="30" viewBox="0 0 30 30" fill="none" xmlns="http://www.w3.org/2000/svg">
<g id="logos:dbt-icon" clip-path="url(#clip0_127_224)">
<path id="Vector" d="M28.5212 1.6421C29.2062 2.30083 29.6541 3.17025 29.7595 4.11878C29.7595 4.51399 29.6541 4.7775 29.4169 5.27812C29.1799 5.77862 26.2553 10.8374 25.3859 12.2337C24.8853 13.0505 24.6218 14.0254 24.6218 14.9738C24.6218 15.9487 24.8853 16.8972 25.3859 17.714C26.2553 19.1104 29.1798 24.1953 29.417 24.6959C29.6541 25.1966 29.7595 25.4335 29.7595 25.8289C29.6541 26.7774 29.2325 27.6468 28.5476 28.2791C27.8889 28.9642 27.0194 29.4121 26.0972 29.4912C25.7021 29.4912 25.4386 29.3858 24.9643 29.1486C24.4899 28.9113 19.326 26.0661 17.9297 25.1966C17.8242 25.1439 17.7189 25.0649 17.5871 25.0122L10.6842 20.9283C10.8422 22.2457 11.4218 23.5103 12.3703 24.4324C12.5547 24.6168 12.7391 24.7751 12.9501 24.933C12.7918 25.012 12.6074 25.0913 12.4494 25.1966C11.053 26.066 5.96806 28.9904 5.46745 29.2277C4.96683 29.4648 4.72973 29.5702 4.30811 29.5702C3.35958 29.4648 2.49016 29.0431 1.85784 28.3582C1.17271 27.6995 0.724912 26.8301 0.619507 25.8816C0.645801 25.4864 0.751206 25.0912 0.962129 24.7486C1.19912 24.248 4.12371 19.1631 4.99312 17.7667C5.49374 16.9498 5.75725 16.0014 5.75725 15.0266C5.75725 14.0518 5.49374 13.1031 4.99312 12.2864C4.12371 10.8374 1.17283 5.75232 0.962016 5.25171C0.751206 4.90908 0.645801 4.51399 0.619507 4.11878C0.724912 3.17025 1.14653 2.30083 1.83143 1.6421C2.49016 0.9572 3.35958 0.535581 4.30811 0.430176C4.70332 0.45647 5.09853 0.561875 5.46745 0.772798C5.88895 0.9572 9.60396 3.11766 11.58 4.27688L12.0278 4.5404C12.1859 4.64572 12.3176 4.72476 12.423 4.7775L12.6338 4.9092L19.6684 9.07201C19.5104 7.49116 18.6937 6.04213 17.429 5.06731C17.5872 4.98831 17.7716 4.90908 17.9296 4.80379C19.326 3.93437 24.411 0.983494 24.9116 0.772685C25.2542 0.561875 25.6493 0.45647 26.0709 0.430176C27.0038 0.536587 27.8704 0.965199 28.5212 1.6421ZM15.5584 16.8708L17.0602 15.369C17.271 15.1583 17.271 14.8421 17.0602 14.6314L15.5583 13.1295C15.3476 12.9187 15.0314 12.9187 14.8207 13.1295L13.3189 14.6314C13.108 14.8421 13.108 15.1583 13.3189 15.369L14.8207 16.8708C15.0051 17.0552 15.3477 17.0552 15.5584 16.8708Z" fill="#A04D07"/>
</g>
<defs>
<clipPath id="clip0_127_224">
<rect width="29.14" height="29.14" fill="white" transform="translate(0.619507 0.430176)"/>
</clipPath>
</defs>
</svg>
