<svg width="30" height="30" viewBox="0 0 30 30" fill="none" xmlns="http://www.w3.org/2000/svg">
<g id="logos:broadcom-icon" clip-path="url(#clip0_127_227)">
<path id="Vector" d="M15.1894 29.5702C23.2362 29.5702 29.7594 23.047 29.7594 15.0002C29.7594 6.95339 23.2362 0.430176 15.1894 0.430176C7.1426 0.430176 0.619385 6.95339 0.619385 15.0002C0.619385 23.047 7.1426 29.5702 15.1894 29.5702Z" fill="#A04D07"/>
<path id="Vector_2" d="M28.0269 18.9352C26.3605 18.2713 24.8351 18.4938 23.3059 19.4208C23.3059 19.4208 22.7486 19.7608 22.5817 19.8659C21.8692 20.3128 21.1971 20.7363 20.551 20.7363C19.9344 20.7363 19.3278 20.5713 19.0713 19.3786C18.6709 17.5183 17.6946 12.9472 17.2683 10.683C17.0179 9.35239 16.8808 8.63527 16.738 8.14809C16.4868 7.29188 16.0273 6.8262 15.3749 6.75176C15.3749 6.75176 15.2726 6.7373 15.1892 6.7373C15.1066 6.7373 14.9936 6.75347 14.9936 6.75347C14.3474 6.83064 13.8906 7.29643 13.6412 8.14798C13.4986 8.63528 13.3612 9.35228 13.1108 10.683C12.6846 12.9471 11.7083 17.5184 11.3081 19.3786C11.0514 20.5712 10.4448 20.7363 9.82831 20.7363C9.18222 20.7363 8.51007 20.3128 7.79762 19.8659C7.55651 19.7166 7.31482 19.5682 7.07253 19.4208C5.54428 18.4938 4.01784 18.2712 2.35231 18.9354C1.9925 19.0789 1.63804 19.2397 1.30054 19.4021C1.53127 20.1254 1.81834 20.8372 2.15311 21.5058C2.52191 21.3245 2.9087 21.1446 3.30346 21.028C3.87248 20.8602 4.45574 20.8512 5.02112 21.0405C5.57023 21.2246 6.05924 21.5502 6.54665 21.8563C7.46467 22.4333 8.50472 23.0875 9.82831 23.0875C11.7899 23.0875 13.1665 21.9164 13.6063 19.874C13.9472 18.291 14.7028 14.7572 15.1883 12.3199C15.1883 12.3199 16.4321 18.291 16.7722 19.874C17.2119 21.9164 18.5893 23.0873 20.5509 23.0873C21.8746 23.0873 22.9147 22.4333 23.8326 21.8563C24.3199 21.5502 24.809 21.2246 25.3582 21.0405C25.9226 20.8512 26.5068 20.8602 27.0758 21.028C27.4706 21.1446 27.8569 21.3247 28.2257 21.506C28.5612 20.8374 28.8476 20.1253 29.0782 19.4019C28.7409 19.2395 28.3869 19.0789 28.0269 18.9352Z" fill="#F5FFFF"/>
</g>
<defs>
<clipPath id="clip0_127_227">
<rect width="29.14" height="29.14" fill="white" transform="translate(0.619385 0.430176)"/>
</clipPath>
</defs>
</svg>
