<svg width="30" height="30" viewBox="0 0 30 30" fill="none" xmlns="http://www.w3.org/2000/svg">
<g id="iconamoon:profile-circle-fill">
<path id="Vector" fill-rule="evenodd" clip-rule="evenodd" d="M14.9105 4.93178C13.1889 4.93147 11.4972 5.38271 10.0045 6.24049C8.51173 7.09826 7.27007 8.33255 6.40342 9.82017C5.53678 11.3078 5.07546 12.9967 5.06553 14.7183C5.05559 16.4399 5.49738 18.134 6.3468 19.6316C6.92093 18.8854 7.65896 18.2813 8.50383 17.8659C9.3487 17.4505 10.2778 17.235 11.2193 17.2359H18.6018C19.5432 17.235 20.4723 17.4505 21.3172 17.8659C22.1621 18.2813 22.9001 18.8854 23.4742 19.6316C24.3236 18.134 24.7654 16.4399 24.7555 14.7183C24.7455 12.9967 24.2842 11.3078 23.4176 9.82017C22.5509 8.33255 21.3093 7.09826 19.8165 6.24049C18.3238 5.38271 16.6322 4.93147 14.9105 4.93178ZM24.6837 22.2511C24.8379 22.0502 24.9856 21.8443 25.1267 21.6335C26.4907 19.6066 27.2179 17.2183 27.2147 14.7751C27.2147 7.97952 21.7061 2.47095 14.9105 2.47095C8.11491 2.47095 2.60634 7.97952 2.60634 14.7751C2.60246 17.478 3.49228 20.1064 5.1373 22.2511L5.13115 22.2733L5.56795 22.7814C6.72194 24.1306 8.15476 25.2135 9.76765 25.9555C11.3805 26.6974 13.1351 27.0809 14.9105 27.0793C15.1763 27.0793 15.4404 27.0711 15.7029 27.0547C17.923 26.9147 20.0631 26.1724 21.8931 24.9076C22.7683 24.3038 23.5616 23.5891 24.2531 22.7814L24.6899 22.2733L24.6837 22.2511ZM14.9105 7.39261C13.9315 7.39261 12.9926 7.78151 12.3004 8.47376C11.6082 9.166 11.2193 10.1049 11.2193 11.0839C11.2193 12.0628 11.6082 13.0017 12.3004 13.694C12.9926 14.3862 13.9315 14.7751 14.9105 14.7751C15.8895 14.7751 16.8284 14.3862 17.5206 13.694C18.2129 13.0017 18.6018 12.0628 18.6018 11.0839C18.6018 10.1049 18.2129 9.166 17.5206 8.47376C16.8284 7.78151 15.8895 7.39261 14.9105 7.39261Z" fill="#D3D3D3"/>
</g>
</svg>
