<svg width="62" height="11" viewBox="0 0 62 11" fill="none" xmlns="http://www.w3.org/2000/svg">
<path d="M4.99935 0.845703L6.12177 4.30017L9.75401 4.30017L6.81547 6.43514L7.93789 9.88961L4.99935 7.75463L2.06081 9.88961L3.18323 6.43514L0.244686 4.30017L3.87692 4.30017L4.99935 0.845703Z" fill="#DE6600"/>
<path d="M17.9978 0.845703L19.1202 4.30017L22.7524 4.30017L19.8139 6.43514L20.9363 9.88961L17.9978 7.75463L15.0592 9.88961L16.1816 6.43514L13.2431 4.30017L16.8753 4.30017L17.9978 0.845703Z" fill="#DE6600"/>
<path d="M30.9959 0.845703L32.1184 4.30017L35.7506 4.30017L32.812 6.43514L33.9345 9.88961L30.9959 7.75463L28.0574 9.88961L29.1798 6.43514L26.2413 4.30017L29.8735 4.30017L30.9959 0.845703Z" fill="#DE6600"/>
<path d="M43.9943 0.845703L45.1168 4.30017L48.749 4.30017L45.8105 6.43514L46.9329 9.88961L43.9943 7.75463L41.0558 9.88961L42.1782 6.43514L39.2397 4.30017L42.8719 4.30017L43.9943 0.845703Z" fill="#DE6600"/>
<path d="M56.9925 0.845703L58.1149 4.30017L61.7472 4.30017L58.8086 6.43514L59.9311 9.88961L56.9925 7.75463L54.054 9.88961L55.1764 6.43514L52.2378 4.30017L55.8701 4.30017L56.9925 0.845703Z" fill="#D9D9D9"/>
</svg>
