<svg width="32" height="33" viewBox="0 0 32 33" fill="none" xmlns="http://www.w3.org/2000/svg">
<path d="M28.3333 13.7399C28.3317 14.5884 28.0673 15.4157 27.5764 16.1078C27.0855 16.8 26.3923 17.3231 25.592 17.6052C25.1542 17.7696 24.6902 17.8531 24.2226 17.8519C23.3741 17.8503 22.5468 17.5859 21.8547 17.095C21.1625 16.6041 20.6394 15.9108 20.3573 15.1106C20.1928 14.6724 20.1092 14.2079 20.1106 13.7399C20.1146 14.2079 20.0306 14.6732 19.864 15.1106C19.5819 15.9106 19.059 16.6037 18.3671 17.0946C17.6752 17.5855 16.8483 17.85 16 17.8519C15.1516 17.85 14.3247 17.5855 13.6328 17.0946C12.9409 16.6037 12.418 15.9106 12.136 15.1106C11.9715 14.6724 11.8879 14.2079 11.8893 13.7399C11.892 14.2079 11.8093 14.6732 11.6426 15.1106C11.3605 15.9108 10.8374 16.6041 10.1452 17.095C9.45308 17.5859 8.62585 17.8503 7.77729 17.8519C7.31063 17.8546 6.84396 17.7719 6.40796 17.6052C5.60767 17.3231 4.91442 16.8 4.42353 16.1078C3.93264 15.4157 3.66822 14.5884 3.66663 13.7399L4.28263 11.5759L5.76263 7.35455C5.9512 6.81796 6.30172 6.35313 6.76577 6.02426C7.22982 5.69539 7.78452 5.51869 8.35329 5.51855H23.6466C24.2152 5.51896 24.7696 5.69579 25.2334 6.02464C25.6971 6.3535 26.0475 6.81817 26.236 7.35455L27.716 11.5759L28.3333 13.7399Z" stroke="#737373" stroke-width="1.5" stroke-linecap="round" stroke-linejoin="round"/>
<path d="M25.5919 17.6055V24.7041C25.5916 25.4307 25.3028 26.1274 24.789 26.6412C24.2752 27.155 23.5785 27.4438 22.8519 27.4441H9.14661C8.78667 27.4443 8.43023 27.3736 8.09764 27.2359C7.76506 27.0983 7.46285 26.8965 7.20827 26.6421C6.9537 26.3876 6.75175 26.0855 6.61397 25.753C6.47619 25.4205 6.40527 25.0641 6.40527 24.7041V17.6055M11.8893 23.3335H20.1106" stroke="#737373" stroke-width="1.5" stroke-linecap="round" stroke-linejoin="round"/>
</svg>
