<svg width="32" height="32" viewBox="0 0 32 32" fill="none" xmlns="http://www.w3.org/2000/svg">
<path d="M8 5C8 4.20435 8.31607 3.44129 8.87868 2.87868C9.44129 2.31607 10.2044 2 11 2H21C21.7956 2 22.5587 2.31607 23.1213 2.87868C23.6839 3.44129 24 4.20435 24 5V6C24.0002 6.88696 23.7056 7.74883 23.1626 8.4501C22.6195 9.15137 21.8588 9.65226 21 9.874V13C21.793 13 22.502 13.344 23.073 13.777C23.65 14.215 24.158 14.795 24.575 15.403C25.384 16.583 26 18.093 26 19.25C26 19.8661 25.7932 20.4644 25.4125 20.949C25.0319 21.4335 24.4996 21.7761 23.901 21.922L25.209 28.38C25.501 29.86 24.16 30.844 23.404 28.38L21.28 22H20.968L20.878 25.982C20.835 27.515 19.585 27.316 19.528 25.982L19.13 22H12.87L12.472 25.982C12.414 27.316 11.165 27.515 11.122 25.982L11.032 22H10.719L8.595 28.38C7.839 30.844 6.498 29.86 6.79 28.38L8.098 21.922C7.49956 21.776 6.96748 21.4332 6.58706 20.9487C6.20664 20.4642 5.99991 19.866 6 19.25C6 18.094 6.616 16.583 7.425 15.403C7.842 14.795 8.35 14.215 8.927 13.777C9.498 13.344 10.207 13 11 13V9.874C10.1412 9.65226 9.38047 9.15137 8.83741 8.4501C8.29435 7.74883 7.99977 6.88696 8 6V5ZM11 15C10.793 15 10.502 15.093 10.136 15.371C9.775 15.645 9.408 16.049 9.075 16.534C8.384 17.542 8 18.656 8 19.25C8 19.664 8.336 20 8.75 20H23.25C23.4489 20 23.6397 19.921 23.7803 19.7803C23.921 19.6397 24 19.4489 24 19.25C24 18.656 23.616 17.542 22.925 16.534C22.592 16.049 22.225 15.644 21.865 15.371C21.498 15.093 21.207 15 21 15H11ZM19 13V10H13V13H19ZM22 6V5C22 4.73478 21.8946 4.48043 21.7071 4.29289C21.5196 4.10536 21.2652 4 21 4H11C10.7348 4 10.4804 4.10536 10.2929 4.29289C10.1054 4.48043 10 4.73478 10 5V6C10 6.53043 10.2107 7.03914 10.5858 7.41421C10.9609 7.78929 11.4696 8 12 8H20C20.5304 8 21.0391 7.78929 21.4142 7.41421C21.7893 7.03914 22 6.53043 22 6Z" fill="black"/>
</svg>
