<svg width="32" height="32" viewBox="0 0 32 32" fill="none" xmlns="http://www.w3.org/2000/svg">
<path d="M15.9997 17.3337C17.4142 17.3337 18.7707 16.7718 19.7709 15.7716C20.7711 14.7714 21.333 13.4148 21.333 12.0003C21.333 10.5858 20.7711 9.22928 19.7709 8.22909C18.7707 7.2289 17.4142 6.66699 15.9997 6.66699C14.5852 6.66699 13.2286 7.2289 12.2284 8.22909C11.2282 9.22928 10.6663 10.5858 10.6663 12.0003C10.6663 13.4148 11.2282 14.7714 12.2284 15.7716C13.2286 16.7718 14.5852 17.3337 15.9997 17.3337ZM15.9997 17.3337C13.8779 17.3337 11.8431 18.1765 10.3428 19.6768C8.84253 21.1771 7.99967 23.2119 7.99967 25.3337V29.3337M15.9997 17.3337C18.1214 17.3337 20.1562 18.1765 21.6565 19.6768C23.1568 21.1771 23.9997 23.2119 23.9997 25.3337V29.3337M17.333 6.66699C17.8717 4.44833 20.0197 2.66699 22.6663 2.66699C25.5623 2.66699 27.973 5.05366 27.9997 8.00033C27.973 10.947 25.5623 13.3337 22.6663 13.3337M22.6663 13.3337H21.333M22.6663 13.3337C27.0503 13.3337 30.6663 16.915 30.6663 21.3337V24.0003M14.6663 6.66699C14.1277 4.44833 11.9797 2.66699 9.33301 2.66699C6.43701 2.66699 4.02634 5.05366 3.99967 8.00033C4.02634 10.947 6.43701 13.3337 9.33301 13.3337M9.33301 13.3337H10.6663M9.33301 13.3337C4.94901 13.3337 1.33301 16.915 1.33301 21.3337V24.0003" stroke="black" stroke-width="2.66667"/>
</svg>
