<svg width="32" height="32" viewBox="0 0 32 32" fill="none" xmlns="http://www.w3.org/2000/svg">
<path d="M8.17701 28.0004C6.60634 28.0004 5.33301 26.6937 5.33301 25.0804V13.3444C5.33301 12.4577 5.72634 11.6177 6.39967 11.0644L14.2223 4.64037C14.7222 4.22648 15.3507 4 15.9997 4C16.6486 4 17.2772 4.22648 17.777 4.64037L25.5983 11.0644C26.273 11.6177 26.6663 12.4577 26.6663 13.3444V25.0804C26.6663 26.6937 25.393 28.0004 23.8223 28.0004H8.17701Z" stroke="black" stroke-width="2" stroke-linecap="round" stroke-linejoin="round"/>
<path d="M12.666 28V20.6667C12.666 19.9594 12.947 19.2811 13.4471 18.781C13.9472 18.281 14.6254 18 15.3327 18H16.666C17.3733 18 18.0515 18.281 18.5516 18.781C19.0517 19.2811 19.3327 19.9594 19.3327 20.6667V28" stroke="black" stroke-width="2" stroke-linecap="round" stroke-linejoin="round"/>
</svg>
