<svg width="30" height="30" viewBox="0 0 30 30" fill="none" xmlns="http://www.w3.org/2000/svg">
<path d="M15 10.9375C13.9226 10.9375 12.8892 11.3655 12.1274 12.1274C11.3655 12.8892 10.9375 13.9226 10.9375 15C10.9375 16.0774 11.3655 17.1108 12.1274 17.8726C12.8892 18.6345 13.9226 19.0625 15 19.0625C16.0774 19.0625 17.1108 18.6345 17.8726 17.8726C18.6345 17.1108 19.0625 16.0774 19.0625 15C19.0625 13.9226 18.6345 12.8892 17.8726 12.1274C17.1108 11.3655 16.0774 10.9375 15 10.9375Z" fill="black"/>
<path fill-rule="evenodd" clip-rule="evenodd" d="M8.46228 3.85319C12.8073 3.37185 17.1922 3.37185 21.5373 3.85319C23.911 4.11819 25.8248 5.98694 26.1035 8.36944C26.6185 12.7753 26.6185 17.2261 26.1035 21.6319C25.8248 24.0144 23.911 25.8832 21.5385 26.1494C17.1931 26.6309 12.8077 26.6309 8.46228 26.1494C6.08853 25.8832 4.17478 24.0144 3.89603 21.6332C3.38101 17.2269 3.38101 12.7757 3.89603 8.36944C4.17478 5.98694 6.08853 4.11819 8.46228 3.85319ZM21.2498 7.50069C20.9183 7.50069 20.6003 7.63239 20.3659 7.86681C20.1315 8.10123 19.9998 8.41917 19.9998 8.75069C19.9998 9.08221 20.1315 9.40015 20.3659 9.63457C20.6003 9.869 20.9183 10.0007 21.2498 10.0007C21.5813 10.0007 21.8992 9.869 22.1337 9.63457C22.3681 9.40015 22.4998 9.08221 22.4998 8.75069C22.4998 8.41917 22.3681 8.10123 22.1337 7.86681C21.8992 7.63239 21.5813 7.50069 21.2498 7.50069ZM9.06228 15.0007C9.06228 13.426 9.68784 11.9157 10.8013 10.8022C11.9148 9.68875 13.4251 9.06319 14.9998 9.06319C16.5745 9.06319 18.0847 9.68875 19.1982 10.8022C20.3117 11.9157 20.9373 13.426 20.9373 15.0007C20.9373 16.5754 20.3117 18.0856 19.1982 19.1991C18.0847 20.3126 16.5745 20.9382 14.9998 20.9382C13.4251 20.9382 11.9148 20.3126 10.8013 19.1991C9.68784 18.0856 9.06228 16.5754 9.06228 15.0007Z" fill="black"/>
</svg>
