<svg width="28" height="24" viewBox="0 0 28 24" fill="none" xmlns="http://www.w3.org/2000/svg">
<path id="Vector" d="M27.2727 3.22727C26.2689 3.70454 25.1869 4.01818 24.0657 4.16818C25.2129 3.44545 26.0994 2.3 26.5166 0.922727C25.4346 1.60455 24.2352 2.08182 22.9706 2.35455C21.9407 1.18182 20.4937 0.5 18.851 0.5C15.7874 0.5 13.2844 3.11818 13.2844 6.35C13.2844 6.81363 13.3365 7.26364 13.4278 7.68636C8.78672 7.44091 4.65409 5.10909 1.90335 1.57727C1.421 2.43636 1.14723 3.44545 1.14723 4.50909C1.14723 6.54091 2.12498 8.34091 3.63723 9.36363C2.71163 9.36363 1.85121 9.09091 1.09508 8.68182V8.72272C1.09508 11.5591 3.02451 13.9318 5.5797 14.4636C4.75934 14.6985 3.89809 14.7311 3.06362 14.5591C3.4177 15.7216 4.11116 16.7387 5.04652 17.4676C5.98187 18.1965 7.11209 18.6005 8.27829 18.6227C6.30145 20.2597 3.85103 21.1445 1.32974 21.1318C0.886494 21.1318 0.443247 21.1045 0 21.05C2.47697 22.7136 5.42326 23.6818 8.57813 23.6818C18.851 23.6818 24.4959 14.7636 24.4959 7.03182C24.4959 6.77273 24.4959 6.52727 24.4829 6.26818C25.578 5.45 26.5166 4.41364 27.2727 3.22727Z" fill="white"/>
</svg>
