<?xml version="1.0" encoding="UTF-8"?>
<svg id="Layer_1" data-name="Layer 1" xmlns="http://www.w3.org/2000/svg" viewBox="0 0 2000 2000">
  <defs>
    <style>
      .cls-1 {
        fill: #f5b129;
      }
    </style>
  </defs>
  <path class="cls-1" d="M1287.95,886.61c-.97,2.12-2.21,3.94-3.65,5.49-3.99,4.29-9.58,6.45-15.95,6.74-4.68.2-9.69-1.44-14.09-3.08-30.12-11.26-43.74-8.28-67.56-3.71-17.53,3.37-36.88,15.38-48.44,27.14-5.74,5.83-10.57,12.85-14.3,21.22-4.74,10.65-7.72,22.3-9.95,33.8-1,5.19-1.7,10.41-2.19,15.64-1.65,8.59-2.97,17.28-4.16,25.99-3.17,23.24-13.41,42.3-34.49,54.35-6.41,3.66-12.96,5.75-19.36,6.33-14.47,1.32-28.18-5.13-37.81-18.78-3.29-4.66-5.63-9.97-8.49-14.94-1.8-3.14-3.73-6.18-5.37-8.87-7.26.32-9.62,5.05-11.78,9.58-4.5,9.45-8.12,19.36-13.17,28.48-3.53,6.35-7.98,12.79-13.54,17.31-16,12.99-36.47,9.75-48.94-6.77-6.07-8.04-9.39-17.15-10.28-27.12-2.88-32.75-4.24-65.54,2.09-98,2.29-11.8,2.1-23.54,6.99-34.54,5.93-13.33,21.33-16.57,33.54-8.42,4.61,3.06,7.12,7.34,6.64,12.82-.82,9.38-2.75,18.79-4.17,28.09-1.83,12-2.34,18.4-1.22,35.88.31,4.86-.63,9.38,4.64,13.61,1.64-3.82,3.1-7.1,4.46-10.41,4.76-11.55,8.96-23.36,14.41-34.58,3.49-7.19,8.13-14.12,13.47-20.06,6.87-7.61,15.19-7.72,22.13-.23,6.13,6.61,11.57,14.12,16.02,21.97,6.31,11.14,11.43,22.96,17.08,34.48,1.19,2.42,2.12,5.04,3.68,7.19,3.22,4.38,8.26,3.84,10.08-1.3,1.9-5.39,3.08-11.05,4.35-16.64,2.31-10.21,4.29-20.48,6.69-30.67,6.24-26.54,18.41-48.73,35.18-67.53,11.19-12.55,24.43-23.59,39.31-33.39,16.97-11.17,45.5-18.1,66.16-18.78,4.23-.14,8.4-.19,12.53-.16,5.05.7,10.17,1.72,15.33,3.09,18.54,4.92,35.49,13.06,48.73,27.51,5.58,6.09,9.13,13.16,5.4,21.23Z"/>
  <path class="cls-1" d="M1254.74,1020.19c-24.55,21.02-34.35,52.14-63.15,68.82-85.03,45.38-71.62-108.12-35.82-145.75,29.52-49.98,112.94-51.07,134.1,6,18.87,32.46,46.89,193.55-18.22,151.47-16.78-19.78-5.98-55.29-16.91-80.53ZM1171.09,1026.05c10.82,34.36,64.71-46.61,46.85-59.36-24.73-3.66-43.23,38.47-46.85,59.36Z"/>
  <path class="cls-1" d="M814.43,1017.15c-5,4.42-8.65,6.8-11.17,10.06-4.74,6.13-8.89,12.73-13.18,19.2-10.41,15.67-23.29,28.93-38.79,39.57-7.61,5.22-15.86,8.94-25.36,9.22-11.46.34-20.26-4.05-26.36-13.89-6.37-10.28-9.79-21.62-10.97-33.42-3.89-39.02,3.95-75.41,26.86-107.66,11.98-16.86,27.2-30.59,48.06-35.1,37.71-8.17,71.36,5.81,86.04,41.1,8.08,19.42,12.91,39.71,17.88,60.03,4.24,17.34,8.55,34.75,14.31,51.62,6.56,19.22,17.78,35.44,35.36,46.83,14.9,9.65,31,12.76,48.34,11.03,5.04-.5,10.09-.94,15.12-1.52,5.46-.63,8.92,2.09,11.6,6.46,5.9,9.65,4.55,23.58-3.1,32.03-7.26,8.02-16.82,11.7-27.06,12.24-44.61,2.37-83.83-8.96-111.39-46.97-13.26-18.29-20.75-39.33-26.27-61.04-2.41-9.47-4.02-19.15-6.16-28.7-.64-2.84-1.85-5.55-3.75-11.08ZM730.78,1023.01c.28,4.54,1.74,6.41,4.49,8.21,2.22,1.45,6.95.38,10.17-1.11,1.14-.53,2.37-1.29,3.39-2.16,16.33-14.07,27.41-31.42,32.27-52.51,1.01-4.39.96-9.17-3.47-11.79-4.17-2.47-8.49-1.29-12.27,1.59-2.41,1.84-4.99,3.52-7.16,5.61-13.22,12.73-21.41,28.41-26.5,45.86-.37,1.28-.64,3.74-.92,6.3Z"/>
</svg>