<svg width="274" height="73" viewBox="0 0 274 73" fill="none" xmlns="http://www.w3.org/2000/svg">
<path d="M218.072 27.1939C221.388 21.2043 224.702 18.6901 230.264 17.8068C249.393 14.7712 246.124 43.0234 236.796 51.7202C225.11 64.4046 207.28 57.5243 206.621 40.3199C205.562 28.9622 206.614 16.2278 209.488 5.19854C211.134 1.03289 219.972 2.02559 219.946 5.10947C220.007 12.4239 218.74 19.6623 218.074 27.1958L218.072 27.1939ZM221.727 43.8361C221.827 48.2337 226.999 46.6787 228.904 44.3259C231.858 39.676 232.211 29.7156 226.494 31.315C221.406 32.5935 221.291 40.5166 221.727 43.8361Z" fill="#F5B129"/>
<path d="M202.983 39.4014C202.363 44.3222 201.361 49.1577 199.439 53.7557C199.036 54.7169 198.572 55.6836 197.963 56.5242C196.626 58.3778 194.455 59.0978 192.401 58.5188C190.4 57.9529 188.723 56.1159 188.697 53.9134C188.669 51.8371 188.89 49.7181 189.322 47.6863C189.931 44.8362 190.872 42.0585 191.595 39.2307C192.005 37.6386 192.31 36.0132 192.579 34.3896C192.926 32.3226 192.245 30.5301 190.853 29.0179C189.871 27.9528 188.959 27.8619 187.951 28.9103C187.025 29.8696 186.188 30.9699 185.559 32.1444C183.06 36.8018 181.366 41.7505 180.609 46.9942C180.208 49.77 179.501 52.4104 177.898 54.7707C176.81 56.3701 175.421 57.5874 173.675 58.3722C172.227 59.0217 170.828 59.0291 169.615 58.4372C168.908 58.0921 168.264 57.5428 167.709 56.8006C167.011 55.8636 166.509 54.8505 166.176 53.7835C165.846 52.7278 165.685 51.6219 165.662 50.4844C165.616 47.9349 165.705 45.3836 165.776 42.8341C165.904 38.2287 166.091 33.6084 165.293 29.0587C164.421 29.9827 163.636 31.0311 163.039 32.1463C160.539 36.8036 158.845 41.7523 158.088 46.996C157.687 49.7719 156.98 52.4123 155.377 54.7725C154.29 56.372 152.9 57.5892 151.154 58.3741C148.864 59.4002 146.699 58.8269 145.189 56.8025C143.799 54.9377 143.185 52.7741 143.142 50.4863C143.096 47.9368 143.185 45.3854 143.255 42.836C143.389 38.032 143.585 33.2132 142.667 28.4761C142.522 27.7376 142.368 26.9991 142.19 26.2624C142.125 26.1066 142.068 25.947 142.014 25.7818C141.442 24.0005 140.964 22.1784 140.24 20.4621C136.854 12.4499 127.539 8.61455 119.137 9.05616C115.704 9.23615 112.687 9.25284 110.043 10.6185C104.445 13.515 100.881 17.9738 98.1419 24.5034C96.0433 29.5114 95.084 34.8257 94.3548 40.1918C93.6515 45.3502 91.3785 49.5808 86.6989 52.2546C82.0545 54.908 77.0928 53.8596 74.009 49.4917C73.2797 48.4582 72.7583 47.2781 72.1237 46.174C71.7248 45.4782 71.2943 44.8028 70.9325 44.2053C69.32 44.2777 68.7968 45.3261 68.3181 46.3318C67.3179 48.4285 66.5163 50.6291 65.3956 52.6535C64.6126 54.0637 63.6236 55.4925 62.3897 56.4945C58.8382 59.3761 54.294 58.658 51.5256 54.9934C50.1785 53.2102 49.44 51.1877 49.2451 48.974C48.605 41.7041 48.3044 34.4267 49.709 27.2199C50.2174 24.6017 50.1748 21.9947 51.2602 19.5547C52.5758 16.5952 55.9937 15.8771 58.7046 17.6862C59.727 18.3672 60.2855 19.3135 60.1779 20.5326C59.996 22.6163 59.5674 24.7038 59.252 26.769C58.8475 29.4335 58.7324 30.8548 58.9811 34.7347C59.0516 35.8128 58.8419 36.8185 60.0109 37.7537C60.3764 36.9039 60.6993 36.1765 61.0017 35.4436C62.0575 32.8811 62.9909 30.2574 64.1988 27.7691C64.9726 26.1734 66.0024 24.6351 67.1899 23.3177C68.7151 21.6292 70.5614 21.6032 72.1015 23.2658C73.4616 24.7335 74.6695 26.3997 75.6567 28.1439C77.0576 30.6173 78.195 33.2392 79.4493 35.798C79.7128 36.3361 79.9206 36.9168 80.2676 37.3937C80.982 38.366 82.1009 38.2454 82.5054 37.1061C82.9266 35.9111 83.1901 34.6531 83.4721 33.4136C83.9861 31.148 84.424 28.8676 84.9565 26.6057C87.2648 16.7807 93.2433 9.63508 101.493 4.20582C105.26 1.72685 111.593 0.188625 116.178 0.0383273C130.795 -0.445964 142.73 3.60835 149.23 15.1033C150.032 16.5228 152.275 22.4735 152.765 24.0117C153.032 24.8541 153.388 25.6668 153.798 26.7411C156.034 25.4219 160.07 18.4692 164.193 16.7343C167.147 15.415 169.778 14.0902 172.942 14.8046C177.202 15.5282 179.891 18.202 180.824 22.4011C180.948 22.2619 181.074 22.1265 181.204 21.9929C182.973 20.1707 184.726 18.3004 186.713 16.7343C189.252 14.7285 192.291 14.2665 195.462 14.8046C200.223 15.6136 203.02 18.8552 203.601 23.9356C204.198 29.1348 203.628 34.269 202.983 39.4069V39.4014Z" fill="#F5B129"/>
<path d="M126.78 39.8041C121.332 44.4707 119.156 51.3769 112.763 55.0787C93.8909 65.1505 96.8653 31.0794 104.812 22.7258C111.364 11.6335 129.881 11.3904 134.577 24.0581C138.765 31.2612 144.985 67.0209 130.532 57.6783C126.806 53.2863 129.205 45.4059 126.78 39.8022V39.8041ZM108.214 41.1029C110.615 48.7291 122.577 30.7565 118.612 27.9268C113.122 27.1141 109.017 36.466 108.214 41.1029Z" fill="#F5B129"/>
<path d="M28.1441 39.804C27.0345 40.7856 26.2237 41.3126 25.6633 42.0362C24.6112 43.3963 23.6909 44.8622 22.7371 46.2965C20.427 49.7737 17.5658 52.7185 14.1275 55.0787C12.439 56.2384 10.6076 57.0623 8.49971 57.1253C5.95765 57.2014 4.00378 56.2273 2.64925 54.0415C1.23534 51.761 0.476434 49.2431 0.214806 46.6231C-0.649868 37.9615 1.09061 29.8863 6.17845 22.7258C8.83742 18.9832 12.2163 15.9364 16.8459 14.9345C25.2161 13.1216 32.6846 16.2241 35.9447 24.0581C37.739 28.3684 38.8097 32.8718 39.9137 37.3826C40.8563 41.2328 41.8119 45.096 43.0904 48.8404C44.547 53.1081 47.0371 56.7078 50.9392 59.2351C54.2458 61.3763 57.8195 62.0666 61.6697 61.6825C62.7886 61.5712 63.9093 61.4747 65.0264 61.3467C66.238 61.2075 67.0062 61.8105 67.6 62.781C68.91 64.9222 68.6094 68.0154 66.9116 69.8913C65.301 71.6726 63.1783 72.4872 60.9052 72.6078C51.0023 73.1329 42.2981 70.6206 36.1823 62.1816C33.2394 58.1217 31.5768 53.4514 30.3503 48.6326C29.8141 46.5303 29.4578 44.3816 28.9828 42.2626C28.8418 41.6317 28.5709 41.0305 28.1516 39.804H28.1441ZM9.57777 41.1029C9.64086 42.1104 9.96372 42.5261 10.5742 42.9269C11.0678 43.2497 12.118 43.0122 12.8324 42.6801C13.0847 42.5632 13.3593 42.3943 13.5838 42.2014C17.2077 39.0767 19.6662 35.2265 20.7462 30.5468C20.9707 29.5727 20.9595 28.5132 19.9761 27.9287C19.0521 27.3813 18.0928 27.6429 17.2522 28.2831C16.716 28.6913 16.1445 29.0643 15.662 29.5281C12.7266 32.3541 10.9082 35.8351 9.78002 39.7075C9.69652 39.9914 9.639 40.537 9.57591 41.1047L9.57777 41.1029Z" fill="#F5B129"/>
<path d="M247.239 37.3158C247.485 27.4722 251.579 14.9011 262.567 12.5612C264.163 12.1809 265.931 12.1419 267.558 12.3757C273.049 13.3628 274.686 20.2357 273.749 24.9821C272.624 32.3393 267.887 38.9857 260.91 41.8098C259.244 42.6133 259.092 42.8434 259.435 44.0402C259.903 45.6675 260.689 46.367 262.194 46.0942C264.595 45.66 266.911 44.7045 269.288 44.1701C272.025 43.7674 274.136 45.6749 273.975 48.4415C273.78 51.7499 271.772 53.9079 269.091 55.4554C266.087 57.1884 262.818 57.2422 259.481 56.5909C250.501 54.9618 247.146 45.5988 247.239 37.3158ZM258.387 32.2762C261.526 30.8938 264.167 28.335 264.233 25.2085C264.111 24.3587 263.808 23.5589 262.868 23.2806C261.923 23.0023 261.42 23.6369 260.734 24.1972C258.93 25.6724 258.93 26.7987 258.207 28.58C257.296 30.8289 257.578 31.9774 258.385 32.2762H258.387Z" fill="#F5B129"/>
<path d="M269.386 66.0337C269.383 69.292 267.223 71.565 264.167 71.526C260.712 71.4815 258.149 69.086 258.153 65.9019C258.157 62.6863 260.547 60.0088 263.395 60.0292C266.672 60.0533 269.39 62.7791 269.386 66.0337Z" fill="#F5B129"/>
</svg>
