<svg width="220" height="44" viewBox="0 0 220 44" fill="none" xmlns="http://www.w3.org/2000/svg">
<rect width="220" height="44" rx="22" fill="#EBE9E0"/>
<path d="M131.699 19.0116C132.586 17.4085 133.473 16.7356 134.962 16.4992C140.081 15.6867 139.206 23.2483 136.71 25.576C133.582 28.9709 128.81 27.1294 128.634 22.5247C128.35 19.4849 128.632 16.0766 129.401 13.1247C129.842 12.0097 132.207 12.2754 132.2 13.1008C132.216 15.0585 131.877 16.9958 131.699 19.0121L131.699 19.0116ZM132.677 23.4658C132.704 24.6428 134.088 24.2266 134.598 23.5969C135.388 22.3524 135.483 19.6865 133.953 20.1146C132.591 20.4568 132.56 22.5774 132.677 23.4658Z" fill="#A04D07"/>
<path d="M127.66 22.279C127.494 23.596 127.226 24.8902 126.711 26.1209C126.604 26.3781 126.48 26.6369 126.317 26.8618C125.959 27.358 125.378 27.5506 124.828 27.3957C124.292 27.2442 123.843 26.7526 123.837 26.1631C123.829 25.6074 123.888 25.0402 124.004 24.4964C124.167 23.7336 124.419 22.9902 124.612 22.2333C124.722 21.8072 124.803 21.3722 124.875 20.9376C124.968 20.3844 124.786 19.9046 124.414 19.4999C124.151 19.2148 123.907 19.1905 123.637 19.4711C123.389 19.7278 123.165 20.0223 122.997 20.3367C122.328 21.5832 121.874 22.9077 121.672 24.3112C121.564 25.0541 121.375 25.7608 120.946 26.3925C120.655 26.8206 120.283 27.1464 119.816 27.3565C119.428 27.5303 119.054 27.5323 118.729 27.3738C118.54 27.2815 118.368 27.1345 118.219 26.9358C118.032 26.685 117.898 26.4139 117.809 26.1283C117.721 25.8457 117.677 25.5498 117.671 25.2453C117.659 24.563 117.683 23.8801 117.702 23.1978C117.736 21.9651 117.786 20.7285 117.573 19.5108C117.339 19.7581 117.129 20.0387 116.969 20.3372C116.3 21.5837 115.847 22.9082 115.644 24.3117C115.537 25.0546 115.348 25.7613 114.919 26.393C114.628 26.8211 114.256 27.1469 113.788 27.357C113.176 27.6316 112.596 27.4781 112.192 26.9363C111.82 26.4372 111.655 25.8582 111.644 25.2458C111.632 24.5635 111.655 23.8806 111.674 23.1982C111.71 21.9125 111.763 20.6228 111.517 19.3549C111.478 19.1572 111.437 18.9596 111.389 18.7624C111.372 18.7207 111.356 18.678 111.342 18.6338C111.189 18.157 111.061 17.6694 110.867 17.21C109.961 15.0656 107.468 14.039 105.219 14.1572C104.3 14.2054 103.493 14.2099 102.785 14.5754C101.287 15.3506 100.333 16.544 99.5999 18.2916C99.0382 19.632 98.7814 21.0543 98.5862 22.4906C98.398 23.8712 97.7897 25.0035 96.5372 25.7191C95.2941 26.4293 93.9662 26.1487 93.1408 24.9796C92.9456 24.703 92.8061 24.3872 92.6362 24.0917C92.5294 23.9054 92.4142 23.7247 92.3174 23.5648C91.8858 23.5841 91.7458 23.8647 91.6176 24.1339C91.35 24.6951 91.1354 25.2841 90.8355 25.8259C90.6259 26.2033 90.3612 26.5857 90.0309 26.8539C89.0804 27.6251 87.8642 27.4329 87.1232 26.4521C86.7627 25.9749 86.565 25.4335 86.5129 24.8411C86.3415 22.8953 86.2611 20.9476 86.637 19.0187C86.7731 18.3179 86.7617 17.6202 87.0522 16.9671C87.4043 16.175 88.3191 15.9828 89.0446 16.467C89.3183 16.6493 89.4678 16.9026 89.439 17.2288C89.3903 17.7866 89.2756 18.3453 89.1911 18.898C89.0829 19.6111 89.0521 19.9916 89.1186 21.03C89.1375 21.3185 89.0814 21.5877 89.3943 21.838C89.4921 21.6105 89.5785 21.4159 89.6595 21.2197C89.942 20.5339 90.1918 19.8316 90.5151 19.1657C90.7222 18.7386 90.9979 18.3269 91.3157 17.9743C91.7239 17.5223 92.2181 17.5154 92.6303 17.9604C92.9943 18.3532 93.3176 18.7992 93.5818 19.266C93.9567 19.928 94.2612 20.6297 94.5969 21.3146C94.6674 21.4586 94.723 21.614 94.8159 21.7417C95.0071 22.0019 95.3066 21.9696 95.4148 21.6647C95.5276 21.3449 95.5981 21.0081 95.6736 20.6764C95.8111 20.07 95.9283 19.4597 96.0709 18.8543C96.6887 16.2247 98.2888 14.3122 100.497 12.8591C101.505 12.1956 103.2 11.7839 104.427 11.7437C108.339 11.614 111.534 12.6992 113.273 15.7757C113.488 16.1556 114.088 17.7483 114.219 18.16C114.291 18.3855 114.386 18.603 114.496 18.8905C115.094 18.5374 116.175 16.6766 117.278 16.2123C118.069 15.8592 118.773 15.5046 119.62 15.6958C120.76 15.8895 121.48 16.6051 121.729 17.7289C121.763 17.6917 121.796 17.6554 121.831 17.6197C122.304 17.132 122.774 16.6314 123.306 16.2123C123.985 15.6754 124.798 15.5518 125.647 15.6958C126.922 15.9123 127.67 16.7799 127.825 18.1397C127.985 19.5312 127.833 20.9053 127.66 22.2805V22.279Z" fill="#A04D07"/>
<path d="M107.265 22.3868C105.807 23.6358 105.224 25.4842 103.513 26.4749C98.462 29.1706 99.2581 20.0516 101.385 17.8158C103.139 14.847 108.094 14.782 109.351 18.1724C110.472 20.1003 112.137 29.6712 108.269 27.1707C107.272 25.9952 107.914 23.8861 107.265 22.3863V22.3868ZM102.295 22.7344C102.938 24.7755 106.14 19.9652 105.078 19.2079C103.609 18.9904 102.51 21.4933 102.295 22.7344Z" fill="#A04D07"/>
<path d="M80.8651 22.3867C80.5682 22.6494 80.3511 22.7905 80.2012 22.9841C79.9196 23.3482 79.6732 23.7405 79.418 24.1244C78.7997 25.055 78.0339 25.8432 77.1137 26.4749C76.6617 26.7853 76.1716 27.0058 75.6074 27.0227C74.927 27.043 74.4041 26.7823 74.0416 26.1973C73.6631 25.5869 73.46 24.913 73.39 24.2118C73.1586 21.8935 73.6244 19.7323 74.9861 17.8158C75.6978 16.8141 76.6021 15.9986 77.8412 15.7305C80.0815 15.2453 82.0804 16.0756 82.9529 18.1724C83.4332 19.326 83.7197 20.5313 84.0152 21.7386C84.2675 22.7691 84.5233 23.8031 84.8654 24.8052C85.2553 25.9475 85.9217 26.9109 86.9661 27.5873C87.8511 28.1604 88.8076 28.3452 89.8381 28.2424C90.1376 28.2126 90.4375 28.1867 90.7365 28.1525C91.0608 28.1152 91.2664 28.2766 91.4253 28.5364C91.7759 29.1095 91.6955 29.9373 91.2411 30.4394C90.81 30.9162 90.2419 31.1342 89.6335 31.1665C86.983 31.307 84.6534 30.6346 83.0165 28.376C82.2289 27.2894 81.7839 26.0394 81.4556 24.7496C81.3121 24.187 81.2167 23.6119 81.0896 23.0447C81.0519 22.8759 80.9794 22.715 80.8671 22.3867H80.8651ZM75.8959 22.7343C75.9128 23.004 75.9992 23.1152 76.1626 23.2225C76.2947 23.3089 76.5758 23.2454 76.767 23.1565C76.8346 23.1252 76.9081 23.08 76.9681 23.0283C77.938 22.192 78.5961 21.1615 78.8851 19.909C78.9452 19.6483 78.9422 19.3648 78.679 19.2083C78.4317 19.0618 78.1749 19.1318 77.95 19.3032C77.8064 19.4124 77.6535 19.5122 77.5244 19.6364C76.7387 20.3928 76.252 21.3244 75.9501 22.3609C75.9277 22.4369 75.9123 22.5829 75.8954 22.7348L75.8959 22.7343Z" fill="#A04D07"/>
<path d="M139.505 21.7206C139.571 19.086 140.666 15.7214 143.607 15.0951C144.035 14.9933 144.508 14.9829 144.943 15.0455C146.413 15.3097 146.851 17.1492 146.6 18.4195C146.299 20.3886 145.031 22.1675 143.164 22.9234C142.718 23.1384 142.677 23.2 142.769 23.5203C142.894 23.9559 143.105 24.1431 143.508 24.0701C144.15 23.9539 144.77 23.6981 145.406 23.5551C146.139 23.4473 146.704 23.9579 146.661 24.6983C146.609 25.5838 146.071 26.1614 145.354 26.5756C144.55 27.0394 143.675 27.0538 142.782 26.8795C140.378 26.4435 139.48 23.9375 139.505 21.7206ZM142.489 20.3718C143.329 20.0018 144.036 19.3169 144.053 18.4801C144.021 18.2527 143.94 18.0386 143.688 17.9641C143.435 17.8896 143.301 18.0595 143.117 18.2095C142.634 18.6043 142.634 18.9057 142.44 19.3825C142.197 19.9844 142.272 20.2918 142.488 20.3718H142.489Z" fill="#A04D07"/>
<path d="M145.433 29.4069C145.432 30.279 144.854 30.8873 144.036 30.8769C143.111 30.865 142.425 30.2239 142.426 29.3716C142.427 28.511 143.067 27.7944 143.829 27.7998C144.706 27.8063 145.434 28.5358 145.433 29.4069Z" fill="#A04D07"/>
</svg>
