<svg width="32" height="33" viewBox="0 0 32 33" fill="none" xmlns="http://www.w3.org/2000/svg">
<path fill-rule="evenodd" clip-rule="evenodd" d="M15.9306 2.14844H16.0693C17.268 2.14844 18.2666 2.14844 19.0586 2.2551C19.896 2.3671 20.652 2.6151 21.2586 3.22177C21.8666 3.82977 22.1146 4.58577 22.2266 5.42177C22.3066 6.00844 22.3266 6.7071 22.332 7.5151C23.196 7.5431 23.9666 7.5951 24.652 7.68577C26.2146 7.89644 27.48 8.3391 28.4786 9.33644C29.476 10.3351 29.9186 11.6004 30.1293 13.1631C30.3333 14.6831 30.3333 16.6231 30.3333 19.0738V19.2231C30.3333 21.6738 30.3333 23.6151 30.1293 25.1338C29.9186 26.6964 29.476 27.9618 28.4786 28.9604C27.48 29.9578 26.2146 30.4004 24.652 30.6111C23.132 30.8151 21.192 30.8151 18.7413 30.8151H13.2586C10.808 30.8151 8.86663 30.8151 7.34796 30.6111C5.78529 30.4004 4.51996 29.9578 3.52129 28.9604C2.52396 27.9618 2.08129 26.6964 1.87063 25.1338C1.66663 23.6138 1.66663 21.6738 1.66663 19.2231V19.0738C1.66663 16.6231 1.66663 14.6818 1.87063 13.1631C2.08129 11.6004 2.52396 10.3351 3.52129 9.33644C4.51996 8.3391 5.78529 7.89644 7.34796 7.68577C8.11808 7.59141 8.89232 7.53446 9.66796 7.5151C9.67329 6.7071 9.69463 6.00844 9.77329 5.42177C9.88529 4.58577 10.1333 3.82977 10.74 3.22177C11.348 2.6151 12.104 2.36844 12.94 2.2551C13.7333 2.14844 14.7333 2.14844 15.9306 2.14844ZM11.6693 7.48444C12.1733 7.48177 12.7031 7.48088 13.2586 7.48177H18.7413C19.2968 7.48177 19.8266 7.48266 20.3306 7.48444C20.3253 6.72444 20.3066 6.1511 20.2453 5.68844C20.1613 5.07377 20.0186 4.80977 19.8453 4.63644C19.672 4.4631 19.408 4.32044 18.792 4.23644C18.1493 4.1511 17.2853 4.14844 16 4.14844C14.7146 4.14844 13.8506 4.1511 13.2066 4.23777C12.592 4.32044 12.328 4.4631 12.1546 4.63777C11.9813 4.81244 11.8386 5.07377 11.7546 5.68844C11.6933 6.14977 11.6746 6.7231 11.6693 7.48444ZM7.61329 9.66844C6.27196 9.84844 5.49863 10.1871 4.93329 10.7511C4.37063 11.3151 4.03196 12.0884 3.85196 13.4298C3.66796 14.7991 3.66529 16.6058 3.66529 19.1484C3.66529 21.6911 3.66796 23.4978 3.85196 24.8684C4.03196 26.2084 4.37063 26.9818 4.93463 27.5458C5.49863 28.1098 6.27196 28.4484 7.61329 28.6284C8.98396 28.8124 10.7893 28.8151 13.332 28.8151H18.6653C21.208 28.8151 23.0146 28.8124 24.3853 28.6284C25.7253 28.4484 26.4986 28.1098 27.0626 27.5458C27.6266 26.9818 27.9653 26.2084 28.1453 24.8671C28.3293 23.4978 28.332 21.6911 28.332 19.1484C28.332 16.6058 28.3293 14.8004 28.1453 13.4284C27.9653 12.0884 27.6266 11.3151 27.0626 10.7511C26.4986 10.1871 25.7253 9.84844 24.384 9.66844C23.0146 9.48444 21.208 9.48177 18.6653 9.48177H13.332C10.7893 9.48177 8.98529 9.48444 7.61329 9.66844ZM16 12.8151C16.2652 12.8151 16.5195 12.9205 16.7071 13.108C16.8946 13.2955 17 13.5499 17 13.8151V13.8284C18.452 14.1938 19.6666 15.3391 19.6666 16.9258C19.6666 17.191 19.5613 17.4453 19.3737 17.6329C19.1862 17.8204 18.9318 17.9258 18.6666 17.9258C18.4014 17.9258 18.1471 17.8204 17.9595 17.6329C17.772 17.4453 17.6666 17.191 17.6666 16.9258C17.6666 16.4138 17.0986 15.7044 16 15.7044C14.9013 15.7044 14.3333 16.4138 14.3333 16.9258C14.3333 17.4378 14.9013 18.1484 16 18.1484C17.8466 18.1484 19.6666 19.4284 19.6666 21.3711C19.6666 22.9578 18.452 24.1018 17 24.4684V24.4818C17 24.747 16.8946 25.0013 16.7071 25.1889C16.5195 25.3764 16.2652 25.4818 16 25.4818C15.7347 25.4818 15.4804 25.3764 15.2929 25.1889C15.1053 25.0013 15 24.747 15 24.4818V24.4684C13.548 24.1031 12.3333 22.9578 12.3333 21.3711C12.3333 21.1059 12.4386 20.8515 12.6262 20.664C12.8137 20.4765 13.0681 20.3711 13.3333 20.3711C13.5985 20.3711 13.8529 20.4765 14.0404 20.664C14.2279 20.8515 14.3333 21.1059 14.3333 21.3711C14.3333 21.8831 14.9013 22.5924 16 22.5924C17.0986 22.5924 17.6666 21.8831 17.6666 21.3711C17.6666 20.8591 17.0986 20.1484 16 20.1484C14.1533 20.1484 12.3333 18.8684 12.3333 16.9258C12.3333 15.3391 13.548 14.1938 15 13.8284V13.8151C15 13.5499 15.1053 13.2955 15.2929 13.108C15.4804 12.9205 15.7347 12.8151 16 12.8151Z" fill="#737373"/>
</svg>
