<svg width="32" height="33" viewBox="0 0 32 33" fill="none" xmlns="http://www.w3.org/2000/svg">
<path fill-rule="evenodd" clip-rule="evenodd" d="M22.6666 4.48145C23.6869 4.48139 24.6686 4.87121 25.411 5.57116C26.1533 6.2711 26.6001 7.22825 26.66 8.24678L26.6666 8.48145V14.2814L27.4586 13.9294C28.2773 13.5654 29.2213 14.1294 29.3253 14.9934L29.3333 15.1481V25.8148C29.3335 26.4875 29.0794 27.1355 28.622 27.6288C28.1645 28.1222 27.5375 28.4243 26.8666 28.4748L26.6666 28.4814H5.33329C4.66052 28.4817 4.01254 28.2276 3.51923 27.7701C3.02592 27.3127 2.72375 26.6857 2.67329 26.0148L2.66663 25.8148V15.1481C2.66663 14.2521 3.56663 13.6188 4.39596 13.8748L4.54263 13.9294L5.33329 14.2814V8.48145C5.33324 7.46116 5.72306 6.47943 6.423 5.7371C7.12295 4.99477 8.0801 4.54797 9.09863 4.48811L9.33329 4.48145H22.6666ZM26.6666 17.2001L17.0826 21.4588C16.7418 21.6102 16.3729 21.6884 16 21.6884C15.627 21.6884 15.2581 21.6102 14.9173 21.4588L5.33329 17.2014V25.8148H26.6666V17.2001ZM22.6666 7.14811H9.33329C8.97967 7.14811 8.64053 7.28859 8.39048 7.53864C8.14044 7.78869 7.99996 8.12782 7.99996 8.48145V15.4668L16 19.0228L24 15.4668V8.48145C24 8.12782 23.8595 7.78869 23.6094 7.53864C23.3594 7.28859 23.0202 7.14811 22.6666 7.14811ZM16 11.1481C16.3398 11.1485 16.6667 11.2786 16.9138 11.5119C17.1609 11.7452 17.3096 12.064 17.3295 12.4033C17.3494 12.7426 17.2391 13.0766 17.0209 13.3372C16.8028 13.5978 16.4934 13.7653 16.156 13.8054L16 13.8148H13.3333C12.9935 13.8144 12.6666 13.6843 12.4195 13.451C12.1724 13.2177 12.0236 12.8988 12.0037 12.5596C11.9838 12.2203 12.0942 11.8863 12.3123 11.6257C12.5304 11.3651 12.8398 11.1976 13.1773 11.1574L13.3333 11.1481H16Z" fill="#737373"/>
</svg>
