<svg width="32" height="32" viewBox="0 0 32 32" fill="none" xmlns="http://www.w3.org/2000/svg">
<g id="Component 2">
<path id="Vector" d="M17 27C17 27.2652 17.1054 27.5196 17.2929 27.7071C17.4804 27.8946 17.7348 28 18 28H26C26.2652 28 26.5196 27.8946 26.7071 27.7071C26.8946 27.5196 27 27.2652 27 27V5C27 4.73478 26.8946 4.48043 26.7071 4.29289C26.5196 4.10536 26.2652 4 26 4H18C17.7348 4 17.4804 4.10536 17.2929 4.29289C17.1054 4.48043 17 4.73478 17 5C17 5.26522 17.1054 5.51957 17.2929 5.70711C17.4804 5.89464 17.7348 6 18 6H25V26H18C17.7348 26 17.4804 26.1054 17.2929 26.2929C17.1054 26.4804 17 26.7348 17 27ZM3.2925 15.2925L8.2925 10.2925C8.48014 10.1049 8.73464 9.99944 9 9.99944C9.26536 9.99944 9.51986 10.1049 9.7075 10.2925C9.89514 10.4801 10.0006 10.7346 10.0006 11C10.0006 11.2654 9.89514 11.5199 9.7075 11.7075L6.41375 15H18C18.2652 15 18.5196 15.1054 18.7071 15.2929C18.8946 15.4804 19 15.7348 19 16C19 16.2652 18.8946 16.5196 18.7071 16.7071C18.5196 16.8946 18.2652 17 18 17H6.41375L9.7075 20.2925C9.89514 20.4801 10.0006 20.7346 10.0006 21C10.0006 21.2654 9.89514 21.5199 9.7075 21.7075C9.51986 21.8951 9.26536 22.0006 9 22.0006C8.73464 22.0006 8.48014 21.8951 8.2925 21.7075L3.2925 16.7075C3.19952 16.6146 3.12576 16.5043 3.07544 16.3829C3.02512 16.2615 2.99921 16.1314 2.99921 16C2.99921 15.8686 3.02512 15.7385 3.07544 15.6171C3.12576 15.4957 3.19952 15.3854 3.2925 15.2925Z" fill="#EB1C25"/>
<path id="Vector_2" d="M17 27C17 27.2652 17.1054 27.5196 17.2929 27.7071C17.4804 27.8946 17.7348 28 18 28H26C26.2652 28 26.5196 27.8946 26.7071 27.7071C26.8946 27.5196 27 27.2652 27 27V5C27 4.73478 26.8946 4.48043 26.7071 4.29289C26.5196 4.10536 26.2652 4 26 4H18C17.7348 4 17.4804 4.10536 17.2929 4.29289C17.1054 4.48043 17 4.73478 17 5C17 5.26522 17.1054 5.51957 17.2929 5.70711C17.4804 5.89464 17.7348 6 18 6H25V26H18C17.7348 26 17.4804 26.1054 17.2929 26.2929C17.1054 26.4804 17 26.7348 17 27ZM3.2925 15.2925L8.2925 10.2925C8.48014 10.1049 8.73464 9.99944 9 9.99944C9.26536 9.99944 9.51986 10.1049 9.7075 10.2925C9.89514 10.4801 10.0006 10.7346 10.0006 11C10.0006 11.2654 9.89514 11.5199 9.7075 11.7075L6.41375 15H18C18.2652 15 18.5196 15.1054 18.7071 15.2929C18.8946 15.4804 19 15.7348 19 16C19 16.2652 18.8946 16.5196 18.7071 16.7071C18.5196 16.8946 18.2652 17 18 17H6.41375L9.7075 20.2925C9.89514 20.4801 10.0006 20.7346 10.0006 21C10.0006 21.2654 9.89514 21.5199 9.7075 21.7075C9.51986 21.8951 9.26536 22.0006 9 22.0006C8.73464 22.0006 8.48014 21.8951 8.2925 21.7075L3.2925 16.7075C3.19952 16.6146 3.12576 16.5043 3.07544 16.3829C3.02512 16.2615 2.99921 16.1314 2.99921 16C2.99921 15.8686 3.02512 15.7385 3.07544 15.6171C3.12576 15.4957 3.19952 15.3854 3.2925 15.2925Z" fill="#EB1C25"/>
</g>
</svg>
