<svg width="30" height="31" viewBox="0 0 30 31" fill="none" xmlns="http://www.w3.org/2000/svg">
<g id="teenyicons:password-solid" clip-path="url(#clip0_5_49)">
<path id="Vector" d="M21.6533 22.4284H19.6848V20.46H21.6533V22.4284ZM15.7479 22.4284H17.7164V20.46H15.7479V22.4284ZM25.5903 22.4284H23.6218V20.46H25.5903V22.4284Z" fill="#D3D3D3"/>
<path id="Vector_2" fill-rule="evenodd" clip-rule="evenodd" d="M5.90545 12.5861V7.66484C5.90545 6.76008 6.08366 5.86417 6.4299 5.02827C6.77614 4.19237 7.28363 3.43286 7.9234 2.79309C8.56317 2.15332 9.32268 1.64583 10.1586 1.29959C10.9945 0.953354 11.8904 0.775146 12.7952 0.775146C13.6999 0.775146 14.5958 0.953354 15.4317 1.29959C16.2676 1.64583 17.0271 2.15332 17.6669 2.79309C18.3067 3.43286 18.8142 4.19237 19.1604 5.02827C19.5066 5.86417 19.6849 6.76008 19.6848 7.66484V12.5861H22.6376C23.4207 12.5861 24.1717 12.8971 24.7255 13.4509C25.2792 14.0046 25.5903 14.7557 25.5903 15.5388V16.6215C26.7028 16.8473 27.703 17.4509 28.4214 18.3298C29.1398 19.2088 29.5322 20.3091 29.5322 21.4442C29.5322 22.5794 29.1398 23.6797 28.4214 24.5586C27.703 25.4376 26.7028 26.0411 25.5903 26.267V27.3497C25.5903 28.1328 25.2792 28.8838 24.7255 29.4376C24.1717 29.9913 23.4207 30.3024 22.6376 30.3024H2.95273C2.16962 30.3024 1.41858 29.9913 0.864834 29.4376C0.31109 28.8838 0 28.1328 0 27.3497L0 15.5388C0 14.7557 0.31109 14.0046 0.864834 13.4509C1.41858 12.8971 2.16962 12.5861 2.95273 12.5861H5.90545ZM7.87394 7.66484C7.87394 6.35966 8.39242 5.10793 9.31533 4.18502C10.2382 3.26212 11.49 2.74363 12.7952 2.74363C14.1003 2.74363 15.3521 3.26212 16.275 4.18502C17.1979 5.10793 17.7164 6.35966 17.7164 7.66484V12.5861H7.87394V7.66484ZM16.7321 18.4915C15.949 18.4915 15.198 18.8026 14.6442 19.3563C14.0905 19.9101 13.7794 20.6611 13.7794 21.4442C13.7794 22.2274 14.0905 22.9784 14.6442 23.5321C15.198 24.0859 15.949 24.397 16.7321 24.397H24.6061C25.3892 24.397 26.1402 24.0859 26.694 23.5321C27.2477 22.9784 27.5588 22.2274 27.5588 21.4442C27.5588 20.6611 27.2477 19.9101 26.694 19.3563C26.1402 18.8026 25.3892 18.4915 24.6061 18.4915H16.7321Z" fill="#D3D3D3"/>
</g>
<defs>
<clipPath id="clip0_5_49">
<rect width="29.5273" height="29.5273" fill="white" transform="translate(0 0.775146)"/>
</clipPath>
</defs>
</svg>
