<svg width="32" height="32" viewBox="0 0 32 32" fill="none" xmlns="http://www.w3.org/2000/svg">
<path d="M4.05733 18.2467C3.352 16.98 3 16.3453 3 15.6533C3 14.9613 3.352 14.328 4.05733 13.0613L5.85467 9.82667L7.756 6.652C8.50133 5.408 8.87333 4.78533 9.472 4.43867C10.072 4.09333 10.796 4.08267 12.2453 4.05867L15.948 4L19.648 4.05867C21.0987 4.08267 21.8227 4.09333 22.4213 4.44C23.0213 4.78667 23.3947 5.408 24.1387 6.652L26.0413 9.82667L27.8413 13.0613C28.5453 14.328 28.8973 14.9613 28.8973 15.6533C28.8973 16.3453 28.5453 16.9787 27.84 18.2453L26.0413 21.48L24.14 24.6547C23.3947 25.8987 23.0227 26.5213 22.424 26.868C21.824 27.2133 21.1 27.224 19.6507 27.248L15.948 27.3067L12.248 27.248C10.7973 27.224 10.0733 27.2133 9.47467 26.8667C8.87467 26.52 8.50133 25.8987 7.75733 24.6547L5.85467 21.48L4.05733 18.2467Z" stroke="black" stroke-width="2.66667"/>
<path d="M15.948 19.6533C18.1571 19.6533 19.948 17.8625 19.948 15.6533C19.948 13.4442 18.1571 11.6533 15.948 11.6533C13.7389 11.6533 11.948 13.4442 11.948 15.6533C11.948 17.8625 13.7389 19.6533 15.948 19.6533Z" stroke="black" stroke-width="2.66667"/>
</svg>
