<svg width="32" height="33" viewBox="0 0 32 33" fill="none" xmlns="http://www.w3.org/2000/svg">
<path fill-rule="evenodd" clip-rule="evenodd" d="M12.9866 21.6496C13.0084 21.7792 13.0044 21.9118 12.9749 22.0398C12.9454 22.1679 12.891 22.2888 12.8147 22.3958C12.7384 22.5028 12.6418 22.5937 12.5304 22.6633C12.419 22.733 12.2949 22.7799 12.1653 22.8016C8.96601 23.3387 5.91763 24.5505 3.22263 26.3563C3.00215 26.5037 2.73212 26.5576 2.47194 26.5059C2.21177 26.4543 1.98276 26.3014 1.8353 26.0809C1.68784 25.8605 1.63401 25.5904 1.68564 25.3302C1.73728 25.0701 1.89015 24.8411 2.11063 24.6936C5.04111 22.73 8.35583 21.4124 11.8346 20.8283C11.9642 20.8065 12.0968 20.8105 12.2248 20.84C12.3529 20.8695 12.4739 20.9239 12.5808 21.0002C12.6878 21.0765 12.7787 21.1731 12.8484 21.2845C12.918 21.396 12.965 21.52 12.9866 21.6496ZM19.0133 21.6496C19.035 21.52 19.0819 21.396 19.1516 21.2845C19.2212 21.1731 19.3121 21.0765 19.4191 21.0002C19.5261 20.9239 19.6471 20.8695 19.7751 20.84C19.9031 20.8105 20.0357 20.8065 20.1653 20.8283C23.6441 21.4124 26.9588 22.73 29.8893 24.6936C30.1098 24.8411 30.2627 25.0701 30.3143 25.3302C30.3659 25.5904 30.3121 25.8605 30.1646 26.0809C30.0172 26.3014 29.7882 26.4543 29.528 26.5059C29.2678 26.5576 28.9978 26.5037 28.7773 26.3563C26.0823 24.5505 23.0339 23.3387 19.8346 22.8016C19.705 22.7799 19.581 22.733 19.4696 22.6633C19.3581 22.5937 19.2615 22.5028 19.1852 22.3958C19.109 22.2888 19.0545 22.1679 19.025 22.0398C18.9955 21.9118 18.9915 21.7792 19.0133 21.6496Z" fill="#737373"/>
<path fill-rule="evenodd" clip-rule="evenodd" d="M8.33325 13.8151C8.33325 11.7818 9.14099 9.83173 10.5788 8.39395C12.0165 6.95617 13.9666 6.14844 15.9999 6.14844C18.0332 6.14844 19.9833 6.95617 21.4211 8.39395C22.8588 9.83173 23.6666 11.7818 23.6666 13.8151C23.6666 17.4711 21.8479 20.6858 20.1266 22.9244C19.1748 24.156 18.1092 25.2953 16.9439 26.3271C16.8473 26.4107 16.7495 26.493 16.6506 26.5738L16.6333 26.5898L16.6279 26.5938H16.6253C16.6253 26.5951 16.6253 26.5964 15.9999 25.8151L15.4266 26.6338L15.4226 26.6311L15.4173 26.6271L15.3973 26.6138L15.3319 26.5658L15.0986 26.3898C14.8244 26.1748 14.5567 25.9516 14.2959 25.7204C13.4219 24.9469 12.6154 24.1003 11.8853 23.1898C10.1386 21.0071 8.33325 17.7924 8.33325 13.8151ZM15.9999 25.8151L15.4266 26.6338C15.6036 26.758 15.816 26.8215 16.0321 26.8147C16.2482 26.808 16.4563 26.7314 16.6253 26.5964L15.9999 25.8151ZM15.9653 24.5178C16.0808 24.4129 16.2079 24.2929 16.3466 24.1578C17.1366 23.3943 17.8701 22.5743 18.5413 21.7044C20.1519 19.6111 21.6666 16.8258 21.6666 13.8151C21.6666 12.3122 21.0696 10.8709 20.0069 9.80817C18.9442 8.74546 17.5028 8.14844 15.9999 8.14844C14.497 8.14844 13.0557 8.74546 11.993 9.80817C10.9303 10.8709 10.3333 12.3122 10.3333 13.8151C10.3333 17.1711 11.8599 19.9564 13.4479 21.9404C14.202 22.8787 15.045 23.7418 15.9653 24.5178ZM15.9999 12.1484C15.5579 12.1484 15.134 12.324 14.8214 12.6366C14.5088 12.9492 14.3333 13.3731 14.3333 13.8151C14.3333 14.2571 14.5088 14.6811 14.8214 14.9936C15.134 15.3062 15.5579 15.4818 15.9999 15.4818C16.4419 15.4818 16.8659 15.3062 17.1784 14.9936C17.491 14.6811 17.6666 14.2571 17.6666 13.8151C17.6666 13.3731 17.491 12.9492 17.1784 12.6366C16.8659 12.324 16.4419 12.1484 15.9999 12.1484ZM12.3333 13.8151C12.3333 12.8426 12.7196 11.91 13.4072 11.2224C14.0948 10.5347 15.0275 10.1484 15.9999 10.1484C16.9724 10.1484 17.905 10.5347 18.5926 11.2224C19.2803 11.91 19.6666 12.8426 19.6666 13.8151C19.6666 14.7876 19.2803 15.7202 18.5926 16.4078C17.905 17.0955 16.9724 17.4818 15.9999 17.4818C15.0275 17.4818 14.0948 17.0955 13.4072 16.4078C12.7196 15.7202 12.3333 14.7876 12.3333 13.8151Z" fill="#737373"/>
</svg>
